G04*
G04 #@! TF.GenerationSoftware,Altium Limited,Altium Designer,19.0.15 (446)*
G04*
G04 Layer_Color=8421504*
%FSLAX24Y24*%
%MOIN*%
G70*
G01*
G75*
%ADD13R,0.0197X0.0236*%
%ADD14R,0.0616X0.0488*%
%ADD15R,0.1240X0.0591*%
%ADD16R,0.0331X0.0591*%
%ADD17R,0.0591X0.0492*%
%ADD18R,0.0492X0.0591*%
%ADD19R,0.0488X0.0616*%
D13*
X25374Y23755D02*
D03*
X25000Y22908D02*
D03*
X25748D02*
D03*
D14*
X8327Y29101D02*
D03*
Y28400D02*
D03*
X6909Y21322D02*
D03*
Y22022D02*
D03*
X39419Y21764D02*
D03*
Y22465D02*
D03*
Y4880D02*
D03*
Y5581D02*
D03*
Y16284D02*
D03*
Y16985D02*
D03*
Y10550D02*
D03*
Y11251D02*
D03*
D15*
X6014Y26329D02*
D03*
D16*
X6915Y23770D02*
D03*
X6014D02*
D03*
X5112D02*
D03*
D17*
X25748Y20428D02*
D03*
Y21235D02*
D03*
X32746Y5723D02*
D03*
Y6530D02*
D03*
X6484Y28302D02*
D03*
Y29109D02*
D03*
X21201Y29473D02*
D03*
Y28666D02*
D03*
X34734Y5723D02*
D03*
Y6530D02*
D03*
X33720Y5723D02*
D03*
Y6530D02*
D03*
X38080Y22578D02*
D03*
Y21771D02*
D03*
Y5687D02*
D03*
Y4880D02*
D03*
Y17075D02*
D03*
Y16268D02*
D03*
Y11357D02*
D03*
Y10550D02*
D03*
D18*
X29439Y5841D02*
D03*
X30246D02*
D03*
X17834D02*
D03*
X18641D02*
D03*
X15571Y4936D02*
D03*
X14764D02*
D03*
X21742Y5841D02*
D03*
X22549D02*
D03*
X25778D02*
D03*
X26585D02*
D03*
D19*
X14880Y3174D02*
D03*
X15581D02*
D03*
X23310Y9785D02*
D03*
X24011D02*
D03*
X30197D02*
D03*
X29496D02*
D03*
M02*
