G04*
G04 #@! TF.GenerationSoftware,Altium Limited,Altium Designer,19.0.15 (446)*
G04*
G04 Layer_Color=8388736*
%FSLAX24Y24*%
%MOIN*%
G70*
G01*
G75*
%ADD20R,0.5906X0.2254*%
%ADD21R,0.0277X0.0316*%
%ADD22R,0.0696X0.0568*%
%ADD23R,0.1320X0.0671*%
%ADD24R,0.0411X0.0671*%
%ADD25R,0.0671X0.0572*%
%ADD26R,0.0572X0.0671*%
%ADD27R,0.0568X0.0696*%
%ADD28C,0.0552*%
%ADD29R,0.0552X0.0552*%
%ADD30R,0.0552X0.0552*%
%ADD31C,0.0680*%
%ADD32C,0.1064*%
%ADD33O,0.0671X0.0867*%
%ADD34O,0.0552X0.1064*%
%ADD35O,0.0513X0.0710*%
%ADD36C,0.0592*%
%ADD37O,0.0680X0.0867*%
%ADD38C,0.0867*%
%ADD39R,0.0552X0.1064*%
%ADD40O,0.0552X0.1064*%
%ADD41C,0.2049*%
%ADD42C,0.0789*%
%ADD43C,0.1458*%
%ADD44O,0.0946X0.1458*%
%ADD45C,0.1340*%
%ADD46C,0.0580*%
D20*
X9921Y10044D02*
D03*
D21*
X25374Y23755D02*
D03*
X25000Y22908D02*
D03*
X25748D02*
D03*
D22*
X8327Y29101D02*
D03*
Y28400D02*
D03*
X6909Y21322D02*
D03*
Y22022D02*
D03*
X39419Y21764D02*
D03*
Y22465D02*
D03*
Y4880D02*
D03*
Y5581D02*
D03*
Y16284D02*
D03*
Y16985D02*
D03*
Y10550D02*
D03*
Y11251D02*
D03*
D23*
X6014Y26329D02*
D03*
D24*
X6915Y23770D02*
D03*
X6014D02*
D03*
X5112D02*
D03*
D25*
X25748Y20428D02*
D03*
Y21235D02*
D03*
X32746Y5723D02*
D03*
Y6530D02*
D03*
X6484Y28302D02*
D03*
Y29109D02*
D03*
X21201Y29473D02*
D03*
Y28666D02*
D03*
X34734Y5723D02*
D03*
Y6530D02*
D03*
X33720Y5723D02*
D03*
Y6530D02*
D03*
X38080Y22578D02*
D03*
Y21771D02*
D03*
Y5687D02*
D03*
Y4880D02*
D03*
Y17075D02*
D03*
Y16268D02*
D03*
Y11357D02*
D03*
Y10550D02*
D03*
D26*
X29439Y5841D02*
D03*
X30246D02*
D03*
X17834D02*
D03*
X18641D02*
D03*
X15571Y4936D02*
D03*
X14764D02*
D03*
X21742Y5841D02*
D03*
X22549D02*
D03*
X25778D02*
D03*
X26585D02*
D03*
D27*
X14880Y3174D02*
D03*
X15581D02*
D03*
X23310Y9785D02*
D03*
X24011D02*
D03*
X30197D02*
D03*
X29496D02*
D03*
D28*
X18681Y3174D02*
D03*
X22589D02*
D03*
X26610D02*
D03*
X30309D02*
D03*
X2275Y28294D02*
D03*
D29*
X17681Y3174D02*
D03*
X21589D02*
D03*
X25610D02*
D03*
X29309D02*
D03*
D30*
X2275Y27294D02*
D03*
D31*
X32677Y9690D02*
D03*
X33677D02*
D03*
X36030Y9650D02*
D03*
X35030D02*
D03*
X12132Y17261D02*
D03*
X11132D02*
D03*
X10132D02*
D03*
X6883Y3781D02*
D03*
X7883D02*
D03*
X9883D02*
D03*
X8883D02*
D03*
X10883D02*
D03*
X11883D02*
D03*
Y4781D02*
D03*
X10883D02*
D03*
X8883D02*
D03*
X9883D02*
D03*
X7883D02*
D03*
X6883D02*
D03*
X1132Y22057D02*
D03*
Y22844D02*
D03*
Y23632D02*
D03*
X3100D02*
D03*
Y22844D02*
D03*
Y22057D02*
D03*
D32*
X34700Y19944D02*
D03*
Y32149D02*
D03*
X5172Y19944D02*
D03*
Y32149D02*
D03*
D33*
X22238D02*
D03*
X21238D02*
D03*
X20288D02*
D03*
X19238D02*
D03*
X18288D02*
D03*
X17288D02*
D03*
X16288D02*
D03*
X15288D02*
D03*
X14288D02*
D03*
X13288D02*
D03*
X12338D02*
D03*
X11338D02*
D03*
X10338D02*
D03*
X9388D02*
D03*
X8338D02*
D03*
X7338D02*
D03*
D34*
X4124Y4814D02*
D03*
X3139D02*
D03*
X2155D02*
D03*
X4169Y7794D02*
D03*
X3184D02*
D03*
X2200D02*
D03*
X4169Y10844D02*
D03*
X3184D02*
D03*
X2200D02*
D03*
X8415Y25782D02*
D03*
X9400D02*
D03*
X10384D02*
D03*
D35*
X34722Y3161D02*
D03*
X34222Y2761D02*
D03*
X33722Y3161D02*
D03*
X33222Y2761D02*
D03*
D36*
X27782Y9785D02*
D03*
X25851D02*
D03*
D37*
X18543Y23253D02*
D03*
X15543D02*
D03*
D38*
X43400Y23544D02*
D03*
X40841D02*
D03*
Y21773D02*
D03*
X43400D02*
D03*
Y18061D02*
D03*
X40841D02*
D03*
Y16289D02*
D03*
X43400D02*
D03*
X43389Y12328D02*
D03*
X40830D02*
D03*
Y10556D02*
D03*
X43389D02*
D03*
X43359Y6644D02*
D03*
X40800D02*
D03*
Y4873D02*
D03*
X43359D02*
D03*
X14331Y7972D02*
D03*
X16890D02*
D03*
Y9744D02*
D03*
X14331D02*
D03*
D39*
X14770Y12026D02*
D03*
D40*
X15770D02*
D03*
X16770D02*
D03*
X17770D02*
D03*
X18770D02*
D03*
X19770D02*
D03*
X20770D02*
D03*
X21770D02*
D03*
X22770D02*
D03*
X23770D02*
D03*
X24770D02*
D03*
X25770D02*
D03*
X26770D02*
D03*
X27770D02*
D03*
X28770D02*
D03*
X29770D02*
D03*
X30770D02*
D03*
X31770D02*
D03*
X32770D02*
D03*
X33770D02*
D03*
X14770Y18026D02*
D03*
X15770D02*
D03*
X16770D02*
D03*
X17770D02*
D03*
X18770D02*
D03*
X19770D02*
D03*
X20770D02*
D03*
X21770D02*
D03*
X22770D02*
D03*
X23770D02*
D03*
X24770D02*
D03*
X25770D02*
D03*
X26770D02*
D03*
X27770D02*
D03*
X28770D02*
D03*
X29770D02*
D03*
X30770D02*
D03*
X31770D02*
D03*
X32770D02*
D03*
X33770D02*
D03*
D41*
X4431Y14044D02*
D03*
X3250Y15894D02*
D03*
X5612D02*
D03*
D42*
X38828Y27230D02*
D03*
X39812D02*
D03*
Y28070D02*
D03*
X38828D02*
D03*
D43*
X41690Y29084D02*
D03*
X36950D02*
D03*
D44*
X41690Y31044D02*
D03*
X36950D02*
D03*
D45*
X43898Y1575D02*
D03*
Y31890D02*
D03*
X1575D02*
D03*
Y1575D02*
D03*
D46*
X1142Y18159D02*
D03*
X24301Y30280D02*
D03*
X36299Y12830D02*
D03*
X35502Y12859D02*
D03*
X17677Y15615D02*
D03*
X13209Y21373D02*
D03*
X30256Y7278D02*
D03*
X24793Y21580D02*
D03*
X30738Y22800D02*
D03*
X31811D02*
D03*
X33760Y24650D02*
D03*
X26713Y29365D02*
D03*
X30433Y28509D02*
D03*
X19813Y3161D02*
D03*
X20541Y3174D02*
D03*
X23778Y3174D02*
D03*
M02*
