M48
;Layer_Color=9474304
;FILE_FORMAT=2:4
INCH,LZ
;TYPE=PLATED
T1F00S00C0.0157
T2F00S00C0.0276
T3F00S00C0.0280
T4F00S00C0.0300
T5F00S00C0.0315
T6F00S00C0.0354
T7F00S00C0.0362
T8F00S00C0.0394
T10F00S00C0.0906
T11F00S00C0.0984
T12F00S00C0.1181
T13F00S00C0.1260
%
T01
X005567Y002839
X036463Y002849
X039833
X039218Y008479
X043923Y008518
Y014198
X039255Y014227
X03975Y019837
X044051
X020705Y024434
X008829Y021526
X008465Y017372
X024695Y025438
X029907Y025477
X029986Y031294
X034602Y028981
X043435Y025605
T02
X017681Y003174
X018681
X021589
X022589
X02561
X02661
X029309
X030309
X027782Y009785
X025851
X002275Y027294
Y028294
T03
X019813Y003161
X020541Y003174
X023778Y003174
X030256Y007278
X035502Y012859
X036299Y01283
X03376Y02465
X031811Y0228
X030738
X024793Y02158
X017677Y015615
X013209Y021373
X001142Y018159
X024301Y03028
X026713Y029365
X030433Y028509
T04
X018543Y023253
T05
X015543Y023253
T06
X006883Y003781
X007883
X008883
X009883
X010883
X011883
Y004781
X010883
X009883
X008883
X007883
X006883
X032677Y00969
X033677
X03503Y00965
X03603
X03377Y012026
X03277
X03177
Y018026
X03277
X03377
X03077
X02977
X02877
X02777
X02677
X02577
X02477
X02377
X02277
X02177
X02077
X01977
X01877
X01777
X01677
X01577
Y012026
X01677
X01777
X01877
X01977
X02077
X02177
X02277
X02377
X02477
X02577
X02677
X02777
X02877
X02977
X03077
X01477
Y018026
X012132Y017261
X011132
X010132
X0031Y022057
Y022844
Y023632
X001132
Y022844
Y022057
T07
X038828Y02723
Y02807
X039812
Y02723
T08
X002155Y004814
X003139
X004124
X004169Y007794
X003184
X0022
X014331Y007972
X01689
X033222Y002761
X033722Y003161
X034222Y002761
X034722Y003161
X0408Y004873
Y006644
X043359
Y004873
X043389Y010556
Y012328
X04083
Y010556
X040841Y016289
Y018061
X0434
Y016289
Y021773
Y023544
X040841
Y021773
X01689Y009744
X014331
X004169Y010844
X003184
X0022
X008415Y025782
X0094
X010384
X010338Y032149
X009388
X008338
X007338
X011338
X012338
X013288
X014288
X015288
X016288
X017288
X018288
X019238
X020288
X021238
X022238
T10
X03695Y029084
X04169
T11
X0347Y019944
X005172
Y032149
X0347
T12
X004431Y014044
X005612Y015894
X00325
T13
X001575Y001575
X043898
X001575Y03189
X043898
M30
