G04*
G04 #@! TF.GenerationSoftware,Altium Limited,Altium Designer,19.0.15 (446)*
G04*
G04 Layer_Physical_Order=2*
G04 Layer_Color=16711680*
%FSLAX24Y24*%
%MOIN*%
G70*
G01*
G75*
%ADD47C,0.0394*%
%ADD48C,0.0197*%
%ADD49C,0.0472*%
%ADD50R,0.0472X0.0472*%
%ADD51R,0.0472X0.0472*%
%ADD52C,0.0600*%
%ADD53C,0.0984*%
%ADD54O,0.0591X0.0787*%
%ADD55O,0.0472X0.0984*%
%ADD56O,0.0433X0.0630*%
%ADD57C,0.0512*%
%ADD58O,0.0600X0.0787*%
%ADD59C,0.0787*%
%ADD60R,0.0472X0.0984*%
%ADD61O,0.0472X0.0984*%
%ADD62C,0.1969*%
%ADD63C,0.0709*%
%ADD64C,0.1378*%
%ADD65O,0.0866X0.1378*%
%ADD66C,0.1260*%
%ADD67C,0.0315*%
%ADD68C,0.0500*%
G36*
X45221Y252D02*
X252D01*
Y33213D01*
X45221D01*
X45221Y252D01*
D02*
G37*
%LPC*%
G36*
X21238Y32744D02*
X21109Y32727D01*
X20990Y32678D01*
X20887Y32599D01*
X20808Y32496D01*
X20788Y32447D01*
X20738D01*
X20718Y32496D01*
X20639Y32599D01*
X20536Y32678D01*
X20416Y32727D01*
X20288Y32744D01*
X20159Y32727D01*
X20040Y32678D01*
X19937Y32599D01*
X19858Y32496D01*
X19808Y32376D01*
X19791Y32248D01*
Y32051D01*
X19808Y31922D01*
X19858Y31803D01*
X19937Y31700D01*
X19990Y31659D01*
Y30750D01*
X20000Y30673D01*
X20030Y30601D01*
X20077Y30540D01*
X20547Y30070D01*
X20547Y30070D01*
X20609Y30022D01*
X20681Y29993D01*
X20758Y29982D01*
X20758Y29982D01*
X23966D01*
X23982Y29962D01*
X24076Y29890D01*
X24185Y29845D01*
X24301Y29830D01*
X24418Y29845D01*
X24527Y29890D01*
X24620Y29962D01*
X24692Y30055D01*
X24737Y30164D01*
X24752Y30280D01*
X24737Y30397D01*
X24692Y30506D01*
X24620Y30599D01*
X24527Y30671D01*
X24418Y30716D01*
X24301Y30731D01*
X24185Y30716D01*
X24076Y30671D01*
X23982Y30599D01*
X23966Y30578D01*
X20881D01*
X20586Y30874D01*
Y31659D01*
X20639Y31700D01*
X20718Y31803D01*
X20738Y31851D01*
X20788D01*
X20808Y31803D01*
X20887Y31700D01*
X20990Y31621D01*
X21109Y31571D01*
X21238Y31554D01*
X21366Y31571D01*
X21486Y31621D01*
X21589Y31700D01*
X21668Y31803D01*
X21717Y31922D01*
X21734Y32051D01*
Y32248D01*
X21717Y32376D01*
X21668Y32496D01*
X21589Y32599D01*
X21486Y32678D01*
X21366Y32727D01*
X21238Y32744D01*
D02*
G37*
G36*
X19238D02*
X19109Y32727D01*
X18990Y32678D01*
X18887Y32599D01*
X18808Y32496D01*
X18788Y32447D01*
X18738D01*
X18718Y32496D01*
X18639Y32599D01*
X18536Y32678D01*
X18416Y32727D01*
X18288Y32744D01*
X18159Y32727D01*
X18040Y32678D01*
X17937Y32599D01*
X17858Y32496D01*
X17813Y32388D01*
X17813Y32388D01*
X17762D01*
X17762Y32388D01*
X17718Y32496D01*
X17639Y32599D01*
X17536Y32678D01*
X17416Y32727D01*
X17288Y32744D01*
X17159Y32727D01*
X17040Y32678D01*
X16937Y32599D01*
X16858Y32496D01*
X16813Y32388D01*
X16813Y32388D01*
X16762D01*
X16762Y32388D01*
X16718Y32496D01*
X16639Y32599D01*
X16536Y32678D01*
X16416Y32727D01*
X16288Y32744D01*
X16159Y32727D01*
X16040Y32678D01*
X15937Y32599D01*
X15858Y32496D01*
X15813Y32388D01*
X15813Y32388D01*
X15762D01*
X15762Y32388D01*
X15718Y32496D01*
X15639Y32599D01*
X15536Y32678D01*
X15416Y32727D01*
X15288Y32744D01*
X15159Y32727D01*
X15040Y32678D01*
X14937Y32599D01*
X14858Y32496D01*
X14813Y32388D01*
X14813Y32388D01*
X14762D01*
X14762Y32388D01*
X14718Y32496D01*
X14639Y32599D01*
X14536Y32678D01*
X14416Y32727D01*
X14288Y32744D01*
X14159Y32727D01*
X14040Y32678D01*
X13937Y32599D01*
X13858Y32496D01*
X13813Y32388D01*
X13813Y32388D01*
X13762D01*
X13762Y32388D01*
X13718Y32496D01*
X13639Y32599D01*
X13536Y32678D01*
X13416Y32727D01*
X13288Y32744D01*
X13159Y32727D01*
X13040Y32678D01*
X12937Y32599D01*
X12858Y32496D01*
X12838Y32447D01*
X12788D01*
X12768Y32496D01*
X12689Y32599D01*
X12586Y32678D01*
X12466Y32727D01*
X12338Y32744D01*
X12209Y32727D01*
X12090Y32678D01*
X11987Y32599D01*
X11908Y32496D01*
X11858Y32376D01*
X11841Y32248D01*
Y32051D01*
X11858Y31922D01*
X11908Y31803D01*
X11987Y31700D01*
X12040Y31659D01*
Y30502D01*
X12050Y30424D01*
X12080Y30353D01*
X12127Y30291D01*
X12417Y30001D01*
X12417Y30001D01*
X12479Y29953D01*
X12551Y29924D01*
X12628Y29914D01*
X14650D01*
X14830Y29734D01*
Y27032D01*
X14840Y26955D01*
X14870Y26883D01*
X14917Y26822D01*
X15380Y26359D01*
X15380Y26359D01*
X15442Y26312D01*
X15513Y26282D01*
X15591Y26272D01*
X22573D01*
X22724Y26122D01*
Y21599D01*
X22734Y21522D01*
X22764Y21450D01*
X22811Y21389D01*
X23376Y20824D01*
X23438Y20776D01*
X23510Y20747D01*
X23587Y20736D01*
X34822D01*
X34903Y20655D01*
X34876Y20611D01*
X34835Y20623D01*
X34700Y20637D01*
X34565Y20623D01*
X34435Y20584D01*
X34315Y20520D01*
X34210Y20434D01*
X34124Y20329D01*
X34060Y20209D01*
X34021Y20080D01*
X34008Y19944D01*
X34021Y19809D01*
X34060Y19680D01*
X34124Y19560D01*
X34210Y19455D01*
X34315Y19369D01*
X34435Y19305D01*
X34565Y19265D01*
X34700Y19252D01*
X34835Y19265D01*
X34965Y19305D01*
X35085Y19369D01*
X35154Y19426D01*
X35204Y19402D01*
Y13194D01*
X35183Y13178D01*
X35112Y13084D01*
X35067Y12976D01*
X35051Y12859D01*
X35067Y12742D01*
X35112Y12634D01*
X35183Y12540D01*
X35277Y12469D01*
X35385Y12424D01*
X35502Y12408D01*
X35619Y12424D01*
X35727Y12469D01*
X35821Y12540D01*
X35860Y12592D01*
X35872Y12595D01*
X35921Y12589D01*
X35981Y12511D01*
X36074Y12439D01*
X36183Y12394D01*
X36299Y12379D01*
X36416Y12394D01*
X36525Y12439D01*
X36618Y12511D01*
X36690Y12604D01*
X36735Y12713D01*
X36750Y12830D01*
X36735Y12946D01*
X36690Y13055D01*
X36618Y13148D01*
X36597Y13164D01*
Y20989D01*
X36587Y21066D01*
X36557Y21138D01*
X36510Y21200D01*
X35250Y22459D01*
X35188Y22507D01*
X35116Y22536D01*
X35039Y22547D01*
X32239D01*
X32210Y22597D01*
X32246Y22683D01*
X32262Y22800D01*
X32246Y22917D01*
X32201Y23025D01*
X32144Y23100D01*
X32220Y23177D01*
X38529D01*
X38606Y23187D01*
X38678Y23216D01*
X38739Y23264D01*
X39049Y23574D01*
X39049Y23574D01*
X39097Y23635D01*
X39126Y23707D01*
X39136Y23784D01*
X39136Y23784D01*
Y26771D01*
X39221Y26836D01*
X39290Y26926D01*
X39350D01*
X39419Y26836D01*
X39534Y26748D01*
X39668Y26693D01*
X39812Y26674D01*
X39956Y26693D01*
X40090Y26748D01*
X40122Y26772D01*
X40378D01*
X40444Y26706D01*
Y23983D01*
X40421Y23964D01*
X40348Y23874D01*
X40293Y23772D01*
X40259Y23660D01*
X40248Y23544D01*
X40259Y23429D01*
X40293Y23317D01*
X40348Y23215D01*
X40421Y23125D01*
X40511Y23051D01*
X40614Y22996D01*
X40725Y22962D01*
X40841Y22951D01*
X40957Y22962D01*
X41068Y22996D01*
X41171Y23051D01*
X41196Y23072D01*
X41440D01*
X41719Y22793D01*
Y18811D01*
X41442Y18534D01*
X41196D01*
X41171Y18555D01*
X41068Y18609D01*
X40957Y18643D01*
X40841Y18655D01*
X40725Y18643D01*
X40614Y18609D01*
X40511Y18555D01*
X40421Y18481D01*
X40348Y18391D01*
X40293Y18288D01*
X40259Y18177D01*
X40248Y18061D01*
X40259Y17945D01*
X40293Y17834D01*
X40348Y17731D01*
X40421Y17642D01*
X40511Y17568D01*
X40614Y17513D01*
X40725Y17479D01*
X40841Y17468D01*
X40957Y17479D01*
X41068Y17513D01*
X41171Y17568D01*
X41261Y17642D01*
X41334Y17731D01*
X41339Y17739D01*
X41442D01*
X41719Y17462D01*
Y13041D01*
X41403Y12725D01*
X41268D01*
X41250Y12747D01*
X41160Y12821D01*
X41057Y12876D01*
X40946Y12910D01*
X40830Y12921D01*
X40715Y12910D01*
X40603Y12876D01*
X40501Y12821D01*
X40411Y12747D01*
X40337Y12658D01*
X40282Y12555D01*
X40248Y12444D01*
X40237Y12328D01*
X40248Y12212D01*
X40282Y12101D01*
X40337Y11998D01*
X40411Y11908D01*
X40501Y11834D01*
X40603Y11780D01*
X40715Y11746D01*
X40830Y11734D01*
X40946Y11746D01*
X41057Y11780D01*
X41160Y11834D01*
X41250Y11908D01*
X41268Y11931D01*
X41420D01*
X41719Y11632D01*
Y7354D01*
X41406Y7042D01*
X41238D01*
X41220Y7064D01*
X41130Y7138D01*
X41027Y7193D01*
X40916Y7226D01*
X40800Y7238D01*
X40684Y7226D01*
X40573Y7193D01*
X40470Y7138D01*
X40380Y7064D01*
X40307Y6974D01*
X40252Y6872D01*
X40218Y6760D01*
X40207Y6644D01*
X40218Y6529D01*
X40252Y6417D01*
X40307Y6315D01*
X40380Y6225D01*
X40470Y6151D01*
X40573Y6096D01*
X40684Y6062D01*
X40800Y6051D01*
X40916Y6062D01*
X41027Y6096D01*
X41130Y6151D01*
X41220Y6225D01*
X41238Y6247D01*
X41406D01*
X41719Y5935D01*
Y1769D01*
X41302Y1352D01*
X29205D01*
X28389Y2167D01*
Y7121D01*
X28376Y7224D01*
X28336Y7319D01*
X28273Y7402D01*
X27741Y7933D01*
X27659Y7996D01*
X27563Y8036D01*
X27461Y8049D01*
X25268D01*
X25161Y8157D01*
Y11583D01*
X25192Y11657D01*
X25206Y11770D01*
Y12282D01*
X25192Y12395D01*
X25148Y12501D01*
X25079Y12591D01*
X24988Y12661D01*
X24883Y12704D01*
X24770Y12719D01*
X24657Y12704D01*
X24551Y12661D01*
X24461Y12591D01*
X24391Y12501D01*
X24348Y12395D01*
X24333Y12282D01*
Y11770D01*
X24348Y11657D01*
X24367Y11612D01*
Y7992D01*
X24380Y7889D01*
X24420Y7794D01*
X24483Y7711D01*
X24823Y7372D01*
X24905Y7308D01*
X25001Y7269D01*
X25104Y7255D01*
X27296D01*
X27595Y6956D01*
Y2167D01*
X26780Y1352D01*
X5194D01*
X4521Y2025D01*
Y4385D01*
X4527Y4401D01*
X6563D01*
X6632Y4347D01*
X6726Y4309D01*
Y4254D01*
X6632Y4215D01*
X6528Y4136D01*
X6449Y4032D01*
X6399Y3911D01*
X6382Y3781D01*
X6399Y3652D01*
X6449Y3531D01*
X6528Y3427D01*
X6632Y3347D01*
X6753Y3297D01*
X6883Y3280D01*
X7012Y3297D01*
X7133Y3347D01*
X7237Y3427D01*
X7317Y3531D01*
X7356Y3625D01*
X7410D01*
X7449Y3531D01*
X7528Y3427D01*
X7632Y3347D01*
X7753Y3297D01*
X7883Y3280D01*
X8012Y3297D01*
X8133Y3347D01*
X8237Y3427D01*
X8317Y3531D01*
X8356Y3625D01*
X8410D01*
X8449Y3531D01*
X8528Y3427D01*
X8632Y3347D01*
X8753Y3297D01*
X8883Y3280D01*
X9012Y3297D01*
X9133Y3347D01*
X9237Y3427D01*
X9317Y3531D01*
X9356Y3625D01*
X9410D01*
X9449Y3531D01*
X9528Y3427D01*
X9632Y3347D01*
X9753Y3297D01*
X9883Y3280D01*
X10012Y3297D01*
X10133Y3347D01*
X10237Y3427D01*
X10317Y3531D01*
X10356Y3625D01*
X10410D01*
X10449Y3531D01*
X10528Y3427D01*
X10632Y3347D01*
X10753Y3297D01*
X10883Y3280D01*
X11012Y3297D01*
X11133Y3347D01*
X11237Y3427D01*
X11317Y3531D01*
X11367Y3652D01*
X11384Y3781D01*
X11367Y3911D01*
X11317Y4032D01*
X11237Y4136D01*
X11133Y4215D01*
X11039Y4254D01*
Y4309D01*
X11133Y4347D01*
X11237Y4427D01*
X11317Y4531D01*
X11356Y4625D01*
X11410D01*
X11449Y4531D01*
X11528Y4427D01*
X11632Y4347D01*
X11753Y4297D01*
X11883Y4280D01*
X12012Y4297D01*
X12133Y4347D01*
X12237Y4427D01*
X12317Y4531D01*
X12367Y4652D01*
X12384Y4781D01*
X12367Y4911D01*
X12317Y5032D01*
X12237Y5136D01*
X12181Y5179D01*
Y8763D01*
X12992D01*
X12992Y11304D01*
X12216Y11302D01*
X12181Y11337D01*
Y12364D01*
X12791Y12975D01*
X28203D01*
X28472Y12706D01*
Y12600D01*
X28461Y12591D01*
X28391Y12501D01*
X28348Y12395D01*
X28333Y12282D01*
Y11770D01*
X28348Y11657D01*
X28391Y11552D01*
X28461Y11462D01*
X28551Y11392D01*
X28657Y11349D01*
X28770Y11334D01*
X28883Y11349D01*
X28988Y11392D01*
X29079Y11462D01*
X29148Y11552D01*
X29192Y11657D01*
X29206Y11770D01*
Y12282D01*
X29192Y12395D01*
X29148Y12501D01*
X29079Y12591D01*
X29068Y12600D01*
Y12830D01*
X29068Y12830D01*
X29057Y12907D01*
X29028Y12978D01*
X28980Y13040D01*
X28980Y13040D01*
X28537Y13483D01*
X28483Y13525D01*
X28485Y13551D01*
X28496Y13575D01*
X29188D01*
X29486Y13277D01*
Y12610D01*
X29461Y12591D01*
X29391Y12501D01*
X29348Y12395D01*
X29333Y12282D01*
Y11770D01*
X29348Y11657D01*
X29391Y11552D01*
X29461Y11462D01*
X29486Y11443D01*
Y11107D01*
X29496Y11030D01*
X29526Y10958D01*
X29573Y10896D01*
X30144Y10326D01*
X30144Y10326D01*
X30205Y10278D01*
X30277Y10249D01*
X30354Y10238D01*
X32288D01*
X32350Y10177D01*
Y10065D01*
X32323Y10044D01*
X32243Y9940D01*
X32193Y9819D01*
X32176Y9690D01*
X32193Y9560D01*
X32243Y9439D01*
X32323Y9335D01*
X32427Y9256D01*
X32547Y9206D01*
X32677Y9189D01*
X32807Y9206D01*
X32928Y9256D01*
X33032Y9335D01*
X33111Y9439D01*
X33150Y9533D01*
X33204D01*
X33243Y9439D01*
X33323Y9335D01*
X33427Y9256D01*
X33547Y9206D01*
X33677Y9189D01*
X33807Y9206D01*
X33928Y9256D01*
X34032Y9335D01*
X34111Y9439D01*
X34161Y9560D01*
X34178Y9690D01*
X34161Y9819D01*
X34111Y9940D01*
X34032Y10044D01*
X33928Y10124D01*
X33807Y10174D01*
X33677Y10191D01*
X33547Y10174D01*
X33427Y10124D01*
X33323Y10044D01*
X33243Y9940D01*
X33204Y9846D01*
X33150D01*
X33111Y9940D01*
X33032Y10044D01*
X32945Y10110D01*
Y10300D01*
X32945Y10300D01*
X32935Y10377D01*
X32906Y10449D01*
X32858Y10511D01*
X32858Y10511D01*
X32763Y10606D01*
X32782Y10652D01*
X34621D01*
X34732Y10541D01*
Y10048D01*
X34675Y10005D01*
X34596Y9901D01*
X34545Y9780D01*
X34528Y9650D01*
X34545Y9521D01*
X34596Y9400D01*
X34675Y9296D01*
X34779Y9216D01*
X34900Y9166D01*
X35030Y9149D01*
X35159Y9166D01*
X35280Y9216D01*
X35384Y9296D01*
X35464Y9400D01*
X35502Y9494D01*
X35557D01*
X35596Y9400D01*
X35675Y9296D01*
X35779Y9216D01*
X35900Y9166D01*
X36030Y9149D01*
X36159Y9166D01*
X36280Y9216D01*
X36384Y9296D01*
X36464Y9400D01*
X36514Y9521D01*
X36531Y9650D01*
X36514Y9780D01*
X36464Y9901D01*
X36384Y10005D01*
X36280Y10084D01*
X36159Y10134D01*
X36030Y10152D01*
X35900Y10134D01*
X35779Y10084D01*
X35675Y10005D01*
X35596Y9901D01*
X35557Y9807D01*
X35502D01*
X35464Y9901D01*
X35384Y10005D01*
X35327Y10048D01*
Y10664D01*
X35327Y10664D01*
X35317Y10741D01*
X35287Y10813D01*
X35240Y10875D01*
X35240Y10875D01*
X34955Y11160D01*
X34893Y11208D01*
X34821Y11237D01*
X34744Y11247D01*
X31206D01*
X31068Y11386D01*
Y11453D01*
X31079Y11462D01*
X31148Y11552D01*
X31192Y11657D01*
X31206Y11770D01*
Y12282D01*
X31192Y12395D01*
X31148Y12501D01*
X31079Y12591D01*
X30988Y12661D01*
X30883Y12704D01*
X30770Y12719D01*
X30657Y12704D01*
X30551Y12661D01*
X30461Y12591D01*
X30391Y12501D01*
X30348Y12395D01*
X30333Y12282D01*
Y11770D01*
X30348Y11657D01*
X30391Y11552D01*
X30461Y11462D01*
X30472Y11453D01*
Y11263D01*
X30482Y11186D01*
X30512Y11114D01*
X30559Y11052D01*
X30731Y10880D01*
X30712Y10834D01*
X30478D01*
X30081Y11230D01*
Y11465D01*
X30148Y11552D01*
X30192Y11657D01*
X30206Y11770D01*
Y12282D01*
X30192Y12395D01*
X30148Y12501D01*
X30081Y12588D01*
Y13400D01*
X30071Y13477D01*
X30041Y13549D01*
X29994Y13611D01*
X29994Y13611D01*
X29522Y14083D01*
X29460Y14131D01*
X29388Y14161D01*
X29311Y14171D01*
X11447D01*
X11370Y14161D01*
X11298Y14131D01*
X11236Y14083D01*
X10672Y13519D01*
X10625Y13458D01*
X10595Y13386D01*
X10585Y13309D01*
Y11298D01*
X10216Y11297D01*
X10180Y11332D01*
Y13849D01*
X10606Y14274D01*
X16388D01*
X16465Y14284D01*
X16537Y14314D01*
X16598Y14361D01*
X16972Y14735D01*
X16972Y14735D01*
X17020Y14797D01*
X17049Y14869D01*
X17060Y14946D01*
Y17447D01*
X17079Y17462D01*
X17148Y17552D01*
X17192Y17657D01*
X17206Y17770D01*
Y18282D01*
X17192Y18395D01*
X17148Y18501D01*
X17079Y18591D01*
X16988Y18661D01*
X16883Y18704D01*
X16770Y18719D01*
X16657Y18704D01*
X16551Y18661D01*
X16461Y18591D01*
X16391Y18501D01*
X16348Y18395D01*
X16333Y18282D01*
Y17770D01*
X16348Y17657D01*
X16391Y17552D01*
X16461Y17462D01*
X16464Y17459D01*
Y15069D01*
X16264Y14869D01*
X15469D01*
X15459Y14919D01*
X15493Y14934D01*
X15555Y14981D01*
X15978Y15404D01*
X16026Y15466D01*
X16055Y15538D01*
X16066Y15615D01*
Y17452D01*
X16079Y17462D01*
X16148Y17552D01*
X16192Y17657D01*
X16206Y17770D01*
Y18282D01*
X16192Y18395D01*
X16148Y18501D01*
X16079Y18591D01*
X15988Y18661D01*
X15883Y18704D01*
X15770Y18719D01*
X15657Y18704D01*
X15551Y18661D01*
X15461Y18591D01*
X15391Y18501D01*
X15348Y18395D01*
X15333Y18282D01*
Y17770D01*
X15348Y17657D01*
X15391Y17552D01*
X15461Y17462D01*
X15470Y17455D01*
Y15738D01*
X15221Y15490D01*
X9469D01*
X9391Y15479D01*
X9320Y15450D01*
X9258Y15402D01*
X9258Y15402D01*
X8672Y14816D01*
X8625Y14755D01*
X8595Y14683D01*
X8585Y14606D01*
Y11292D01*
X8216Y11291D01*
X8181Y11326D01*
Y15422D01*
X8539Y15780D01*
X14213D01*
X14290Y15790D01*
X14362Y15820D01*
X14423Y15867D01*
X14980Y16424D01*
X15028Y16486D01*
X15057Y16558D01*
X15068Y16635D01*
Y17453D01*
X15079Y17462D01*
X15148Y17552D01*
X15192Y17657D01*
X15206Y17770D01*
Y18282D01*
X15192Y18395D01*
X15148Y18501D01*
X15079Y18591D01*
X14988Y18661D01*
X14883Y18704D01*
X14770Y18719D01*
X14657Y18704D01*
X14551Y18661D01*
X14461Y18591D01*
X14391Y18501D01*
X14348Y18395D01*
X14333Y18282D01*
Y17770D01*
X14348Y17657D01*
X14391Y17552D01*
X14461Y17462D01*
X14472Y17453D01*
Y16758D01*
X14089Y16375D01*
X8415D01*
X8338Y16365D01*
X8266Y16335D01*
X8205Y16288D01*
X8205Y16288D01*
X7672Y15755D01*
X7625Y15694D01*
X7595Y15622D01*
X7585Y15545D01*
Y11289D01*
X6811Y11287D01*
Y8763D01*
X7585D01*
Y5179D01*
X7528Y5136D01*
X7449Y5032D01*
X7410Y4938D01*
X7356D01*
X7317Y5032D01*
X7237Y5136D01*
X7133Y5215D01*
X7012Y5266D01*
X6883Y5283D01*
X6753Y5266D01*
X6632Y5215D01*
X6605Y5195D01*
X4566D01*
Y7366D01*
X4590Y7426D01*
X4605Y7539D01*
Y8050D01*
X4590Y8163D01*
X4566Y8223D01*
Y10416D01*
X4590Y10476D01*
X4605Y10589D01*
Y11100D01*
X4590Y11213D01*
X4566Y11273D01*
Y11968D01*
X4552Y12070D01*
X4512Y12166D01*
X4449Y12249D01*
X3863Y12835D01*
X3781Y12898D01*
X3685Y12938D01*
X3582Y12951D01*
X1956D01*
X1539Y13368D01*
Y17950D01*
X1577Y18043D01*
X1592Y18159D01*
X1577Y18276D01*
X1532Y18385D01*
X1460Y18478D01*
X1367Y18550D01*
X1258Y18595D01*
X1142Y18610D01*
X1025Y18595D01*
X916Y18550D01*
X823Y18478D01*
X751Y18385D01*
X706Y18276D01*
X691Y18159D01*
X706Y18043D01*
X745Y17950D01*
Y13204D01*
X758Y13101D01*
X798Y13005D01*
X861Y12923D01*
X1511Y12273D01*
X1593Y12210D01*
X1689Y12170D01*
X1791Y12157D01*
X3418D01*
X3771Y11803D01*
Y11273D01*
X3747Y11213D01*
X3732Y11100D01*
Y10589D01*
X3747Y10476D01*
X3771Y10416D01*
Y8223D01*
X3747Y8163D01*
X3732Y8050D01*
Y7539D01*
X3747Y7426D01*
X3771Y7366D01*
Y5322D01*
X3745Y5288D01*
X3702Y5183D01*
X3687Y5070D01*
Y4558D01*
X3702Y4445D01*
X3727Y4385D01*
Y1861D01*
X3740Y1758D01*
X3780Y1662D01*
X3843Y1580D01*
X4749Y674D01*
X4831Y611D01*
X4927Y571D01*
X5030Y558D01*
X26944D01*
X27047Y571D01*
X27143Y611D01*
X27225Y674D01*
X27992Y1441D01*
X28759Y674D01*
X28842Y611D01*
X28937Y571D01*
X29040Y558D01*
X41467D01*
X41569Y571D01*
X41665Y611D01*
X41747Y674D01*
X42397Y1324D01*
X42460Y1406D01*
X42500Y1502D01*
X42513Y1604D01*
Y6099D01*
X42500Y6202D01*
X42460Y6298D01*
X42397Y6380D01*
X42132Y6644D01*
X42397Y6909D01*
X42460Y6991D01*
X42500Y7087D01*
X42513Y7190D01*
Y11796D01*
X42500Y11899D01*
X42460Y11995D01*
X42397Y12077D01*
X42137Y12336D01*
X42397Y12596D01*
X42460Y12678D01*
X42500Y12774D01*
X42513Y12877D01*
Y17627D01*
X42500Y17729D01*
X42460Y17825D01*
X42397Y17907D01*
X42168Y18136D01*
X42397Y18366D01*
X42460Y18448D01*
X42500Y18544D01*
X42513Y18646D01*
Y22957D01*
X42500Y23060D01*
X42460Y23156D01*
X42397Y23238D01*
X41885Y23750D01*
X41803Y23813D01*
X41707Y23853D01*
X41604Y23866D01*
X41339D01*
X41334Y23874D01*
X41261Y23964D01*
X41238Y23983D01*
Y26870D01*
X41225Y26973D01*
X41185Y27069D01*
X41122Y27151D01*
X40823Y27450D01*
X40741Y27513D01*
X40645Y27553D01*
X40542Y27566D01*
X40248D01*
X40205Y27623D01*
X40123Y27686D01*
Y27736D01*
X40136Y27746D01*
X40209Y27841D01*
X40255Y27951D01*
X40264Y28020D01*
X39812D01*
Y28070D01*
X39762D01*
Y28522D01*
X39694Y28513D01*
X39583Y28467D01*
X39488Y28394D01*
X39415Y28299D01*
X39400Y28261D01*
X39345D01*
X39309Y28348D01*
X39221Y28463D01*
X39106Y28552D01*
X38972Y28607D01*
X38828Y28626D01*
X38684Y28607D01*
X38550Y28552D01*
X38435Y28463D01*
X38362Y28368D01*
X38046D01*
X37969Y28358D01*
X37897Y28328D01*
X37835Y28281D01*
X37457Y27902D01*
X37409Y27841D01*
X37380Y27769D01*
X37369Y27692D01*
Y24685D01*
X37022Y24338D01*
X34140D01*
X34118Y24383D01*
X34150Y24425D01*
X34195Y24534D01*
X34211Y24650D01*
X34195Y24767D01*
X34150Y24876D01*
X34079Y24969D01*
X34058Y24985D01*
Y26707D01*
X34048Y26785D01*
X34018Y26856D01*
X33970Y26918D01*
X33006Y27883D01*
X32944Y27930D01*
X32872Y27960D01*
X32795Y27970D01*
X18076D01*
X17586Y28460D01*
Y31659D01*
X17639Y31700D01*
X17718Y31803D01*
X17762Y31910D01*
X17762Y31910D01*
X17813D01*
X17813Y31910D01*
X17858Y31803D01*
X17937Y31700D01*
X17990Y31659D01*
Y29158D01*
X18000Y29081D01*
X18030Y29009D01*
X18077Y28947D01*
X18726Y28298D01*
X18726Y28298D01*
X18788Y28251D01*
X18860Y28221D01*
X18937Y28211D01*
X18937Y28211D01*
X30098D01*
X30114Y28190D01*
X30208Y28118D01*
X30316Y28073D01*
X30433Y28058D01*
X30550Y28073D01*
X30658Y28118D01*
X30752Y28190D01*
X30823Y28283D01*
X30868Y28392D01*
X30884Y28509D01*
X30868Y28625D01*
X30823Y28734D01*
X30752Y28827D01*
X30658Y28899D01*
X30550Y28944D01*
X30433Y28959D01*
X30316Y28944D01*
X30208Y28899D01*
X30114Y28827D01*
X30098Y28806D01*
X19060D01*
X18586Y29281D01*
Y31659D01*
X18639Y31700D01*
X18718Y31803D01*
X18738Y31851D01*
X18788D01*
X18808Y31803D01*
X18887Y31700D01*
X18940Y31659D01*
Y29704D01*
X18950Y29627D01*
X18980Y29555D01*
X19027Y29493D01*
X19366Y29154D01*
X19428Y29107D01*
X19500Y29077D01*
X19577Y29067D01*
X19577Y29067D01*
X26378D01*
X26394Y29046D01*
X26487Y28975D01*
X26596Y28930D01*
X26713Y28914D01*
X26829Y28930D01*
X26938Y28975D01*
X27031Y29046D01*
X27103Y29140D01*
X27148Y29248D01*
X27163Y29365D01*
X27148Y29482D01*
X27103Y29590D01*
X27031Y29684D01*
X26938Y29755D01*
X26829Y29800D01*
X26713Y29816D01*
X26596Y29800D01*
X26487Y29755D01*
X26394Y29684D01*
X26378Y29663D01*
X19700D01*
X19536Y29827D01*
Y31659D01*
X19589Y31700D01*
X19668Y31803D01*
X19717Y31922D01*
X19734Y32051D01*
Y32248D01*
X19717Y32376D01*
X19668Y32496D01*
X19589Y32599D01*
X19486Y32678D01*
X19366Y32727D01*
X19238Y32744D01*
D02*
G37*
G36*
X10338D02*
X10209Y32727D01*
X10090Y32678D01*
X9987Y32599D01*
X9908Y32496D01*
X9888Y32447D01*
X9838D01*
X9818Y32496D01*
X9739Y32599D01*
X9636Y32678D01*
X9516Y32727D01*
X9388Y32744D01*
X9259Y32727D01*
X9140Y32678D01*
X9037Y32599D01*
X8958Y32496D01*
X8908Y32376D01*
X8891Y32248D01*
Y32051D01*
X8908Y31922D01*
X8958Y31803D01*
X9037Y31700D01*
X9096Y31654D01*
Y26351D01*
X9091Y26347D01*
X9021Y26257D01*
X8978Y26151D01*
X8963Y26038D01*
Y25526D01*
X8978Y25413D01*
X9021Y25308D01*
X9091Y25218D01*
X9181Y25148D01*
X9287Y25104D01*
X9400Y25090D01*
X9513Y25104D01*
X9618Y25148D01*
X9708Y25218D01*
X9778Y25308D01*
X9822Y25413D01*
X9836Y25526D01*
Y26038D01*
X9822Y26151D01*
X9778Y26257D01*
X9708Y26347D01*
X9692Y26360D01*
Y31664D01*
X9739Y31700D01*
X9818Y31803D01*
X9838Y31851D01*
X9888D01*
X9908Y31803D01*
X9987Y31700D01*
X10040Y31659D01*
Y29883D01*
X10050Y29806D01*
X10080Y29735D01*
X10127Y29673D01*
X10803Y28997D01*
X10865Y28950D01*
X10937Y28920D01*
X11014Y28910D01*
X11865D01*
X12901Y27873D01*
Y21700D01*
X12890Y21692D01*
X12818Y21598D01*
X12773Y21489D01*
X12758Y21373D01*
X12773Y21256D01*
X12818Y21147D01*
X12890Y21054D01*
X12983Y20983D01*
X13092Y20937D01*
X13209Y20922D01*
X13325Y20937D01*
X13434Y20983D01*
X13527Y21054D01*
X13599Y21147D01*
X13644Y21256D01*
X13659Y21373D01*
X13644Y21489D01*
X13599Y21598D01*
X13527Y21692D01*
X13497Y21715D01*
Y27997D01*
X13486Y28074D01*
X13457Y28146D01*
X13409Y28207D01*
X13409Y28207D01*
X12199Y29418D01*
X12137Y29465D01*
X12065Y29495D01*
X11988Y29505D01*
X11137D01*
X10636Y30007D01*
Y31659D01*
X10689Y31700D01*
X10768Y31803D01*
X10817Y31922D01*
X10834Y32051D01*
Y32248D01*
X10817Y32376D01*
X10768Y32496D01*
X10689Y32599D01*
X10586Y32678D01*
X10466Y32727D01*
X10338Y32744D01*
D02*
G37*
G36*
X22288Y32640D02*
Y32199D01*
X22636D01*
Y32248D01*
X22623Y32351D01*
X22583Y32447D01*
X22520Y32530D01*
X22437Y32593D01*
X22341Y32633D01*
X22288Y32640D01*
D02*
G37*
G36*
X22188D02*
X22135Y32633D01*
X22038Y32593D01*
X21956Y32530D01*
X21893Y32447D01*
X21853Y32351D01*
X21839Y32248D01*
Y32199D01*
X22188D01*
Y32640D01*
D02*
G37*
G36*
X11388D02*
Y32199D01*
X11736D01*
Y32248D01*
X11723Y32351D01*
X11683Y32447D01*
X11620Y32530D01*
X11537Y32593D01*
X11441Y32633D01*
X11388Y32640D01*
D02*
G37*
G36*
X11288D02*
X11235Y32633D01*
X11138Y32593D01*
X11056Y32530D01*
X10993Y32447D01*
X10953Y32351D01*
X10939Y32248D01*
Y32199D01*
X11288D01*
Y32640D01*
D02*
G37*
G36*
X7388D02*
Y32199D01*
X7736D01*
Y32248D01*
X7723Y32351D01*
X7683Y32447D01*
X7620Y32530D01*
X7537Y32593D01*
X7441Y32633D01*
X7388Y32640D01*
D02*
G37*
G36*
X7288D02*
X7235Y32633D01*
X7138Y32593D01*
X7056Y32530D01*
X6993Y32447D01*
X6953Y32351D01*
X6939Y32248D01*
Y32199D01*
X7288D01*
Y32640D01*
D02*
G37*
G36*
X22636Y32099D02*
X22288D01*
Y31659D01*
X22341Y31666D01*
X22437Y31706D01*
X22520Y31769D01*
X22583Y31851D01*
X22623Y31948D01*
X22636Y32051D01*
Y32099D01*
D02*
G37*
G36*
X22188D02*
X21839D01*
Y32051D01*
X21853Y31948D01*
X21893Y31851D01*
X21956Y31769D01*
X22038Y31706D01*
X22135Y31666D01*
X22188Y31659D01*
Y32099D01*
D02*
G37*
G36*
X11736D02*
X11388D01*
Y31659D01*
X11441Y31666D01*
X11537Y31706D01*
X11620Y31769D01*
X11683Y31851D01*
X11723Y31948D01*
X11736Y32051D01*
Y32099D01*
D02*
G37*
G36*
X11288D02*
X10939D01*
Y32051D01*
X10953Y31948D01*
X10993Y31851D01*
X11056Y31769D01*
X11138Y31706D01*
X11235Y31666D01*
X11288Y31659D01*
Y32099D01*
D02*
G37*
G36*
X7736D02*
X7388D01*
Y31659D01*
X7441Y31666D01*
X7537Y31706D01*
X7620Y31769D01*
X7683Y31851D01*
X7723Y31948D01*
X7736Y32051D01*
Y32099D01*
D02*
G37*
G36*
X7288D02*
X6939D01*
Y32051D01*
X6953Y31948D01*
X6993Y31851D01*
X7056Y31769D01*
X7138Y31706D01*
X7235Y31666D01*
X7288Y31659D01*
Y32099D01*
D02*
G37*
G36*
X8338Y32744D02*
X8209Y32727D01*
X8090Y32678D01*
X7987Y32599D01*
X7908Y32496D01*
X7858Y32376D01*
X7841Y32248D01*
Y32051D01*
X7858Y31922D01*
X7908Y31803D01*
X7987Y31700D01*
X8090Y31621D01*
X8209Y31571D01*
X8338Y31554D01*
X8466Y31571D01*
X8586Y31621D01*
X8689Y31700D01*
X8768Y31803D01*
X8817Y31922D01*
X8834Y32051D01*
Y32248D01*
X8817Y32376D01*
X8768Y32496D01*
X8689Y32599D01*
X8586Y32678D01*
X8466Y32727D01*
X8338Y32744D01*
D02*
G37*
G36*
X34700Y32842D02*
X34565Y32828D01*
X34435Y32789D01*
X34315Y32725D01*
X34210Y32639D01*
X34124Y32534D01*
X34060Y32414D01*
X34021Y32284D01*
X34008Y32149D01*
X34021Y32014D01*
X34060Y31884D01*
X34124Y31765D01*
X34210Y31660D01*
X34315Y31574D01*
X34435Y31510D01*
X34565Y31470D01*
X34700Y31457D01*
X34835Y31470D01*
X34965Y31510D01*
X35085Y31574D01*
X35190Y31660D01*
X35276Y31765D01*
X35340Y31884D01*
X35379Y32014D01*
X35392Y32149D01*
X35379Y32284D01*
X35340Y32414D01*
X35276Y32534D01*
X35190Y32639D01*
X35085Y32725D01*
X34965Y32789D01*
X34835Y32828D01*
X34700Y32842D01*
D02*
G37*
G36*
X5172D02*
X5037Y32828D01*
X4908Y32789D01*
X4788Y32725D01*
X4683Y32639D01*
X4597Y32534D01*
X4533Y32414D01*
X4493Y32284D01*
X4480Y32149D01*
X4493Y32014D01*
X4533Y31884D01*
X4597Y31765D01*
X4683Y31660D01*
X4788Y31574D01*
X4908Y31510D01*
X5037Y31470D01*
X5172Y31457D01*
X5307Y31470D01*
X5437Y31510D01*
X5557Y31574D01*
X5662Y31660D01*
X5748Y31765D01*
X5812Y31884D01*
X5851Y32014D01*
X5865Y32149D01*
X5851Y32284D01*
X5812Y32414D01*
X5748Y32534D01*
X5662Y32639D01*
X5557Y32725D01*
X5437Y32789D01*
X5307Y32828D01*
X5172Y32842D01*
D02*
G37*
G36*
X30036Y31547D02*
Y31344D01*
X30239D01*
X30237Y31361D01*
X30211Y31424D01*
X30170Y31478D01*
X30116Y31519D01*
X30053Y31545D01*
X30036Y31547D01*
D02*
G37*
G36*
X29936D02*
X29919Y31545D01*
X29856Y31519D01*
X29803Y31478D01*
X29761Y31424D01*
X29735Y31361D01*
X29733Y31344D01*
X29936D01*
Y31547D01*
D02*
G37*
G36*
X43898Y32721D02*
X43736Y32705D01*
X43580Y32657D01*
X43436Y32581D01*
X43310Y32477D01*
X43207Y32351D01*
X43130Y32208D01*
X43083Y32052D01*
X43067Y31890D01*
X43083Y31728D01*
X43130Y31572D01*
X43207Y31428D01*
X43310Y31302D01*
X43436Y31199D01*
X43580Y31122D01*
X43736Y31075D01*
X43898Y31059D01*
X44060Y31075D01*
X44216Y31122D01*
X44359Y31199D01*
X44485Y31302D01*
X44588Y31428D01*
X44665Y31572D01*
X44712Y31728D01*
X44728Y31890D01*
X44712Y32052D01*
X44665Y32208D01*
X44588Y32351D01*
X44485Y32477D01*
X44359Y32581D01*
X44216Y32657D01*
X44060Y32705D01*
X43898Y32721D01*
D02*
G37*
G36*
X1575D02*
X1413Y32705D01*
X1257Y32657D01*
X1113Y32581D01*
X987Y32477D01*
X884Y32351D01*
X807Y32208D01*
X760Y32052D01*
X744Y31890D01*
X760Y31728D01*
X807Y31572D01*
X884Y31428D01*
X987Y31302D01*
X1113Y31199D01*
X1257Y31122D01*
X1413Y31075D01*
X1575Y31059D01*
X1737Y31075D01*
X1893Y31122D01*
X2036Y31199D01*
X2162Y31302D01*
X2266Y31428D01*
X2342Y31572D01*
X2390Y31728D01*
X2406Y31890D01*
X2390Y32052D01*
X2342Y32208D01*
X2266Y32351D01*
X2162Y32477D01*
X2036Y32581D01*
X1893Y32657D01*
X1737Y32705D01*
X1575Y32721D01*
D02*
G37*
G36*
X30239Y31244D02*
X30036D01*
Y31041D01*
X30053Y31043D01*
X30116Y31069D01*
X30170Y31110D01*
X30211Y31164D01*
X30237Y31227D01*
X30239Y31244D01*
D02*
G37*
G36*
X29936D02*
X29733D01*
X29735Y31227D01*
X29761Y31164D01*
X29803Y31110D01*
X29856Y31069D01*
X29919Y31043D01*
X29936Y31041D01*
Y31244D01*
D02*
G37*
G36*
X41690Y31933D02*
X41567Y31921D01*
X41448Y31885D01*
X41339Y31827D01*
X41243Y31748D01*
X41164Y31652D01*
X41113Y31556D01*
X41051Y31506D01*
X40970Y31407D01*
X40910Y31294D01*
X40873Y31172D01*
X40860Y31044D01*
X40873Y30917D01*
X40910Y30795D01*
X40970Y30682D01*
X41051Y30583D01*
X41113Y30533D01*
X41164Y30437D01*
X41243Y30341D01*
X41339Y30262D01*
X41448Y30204D01*
X41567Y30168D01*
X41690Y30156D01*
X41814Y30168D01*
X41932Y30204D01*
X42042Y30262D01*
X42138Y30341D01*
X42216Y30437D01*
X42268Y30533D01*
X42329Y30583D01*
X42410Y30682D01*
X42470Y30795D01*
X42508Y30917D01*
X42520Y31044D01*
X42508Y31172D01*
X42470Y31294D01*
X42410Y31407D01*
X42329Y31506D01*
X42268Y31556D01*
X42216Y31652D01*
X42138Y31748D01*
X42042Y31827D01*
X41932Y31885D01*
X41814Y31921D01*
X41690Y31933D01*
D02*
G37*
G36*
X36950D02*
X36827Y31921D01*
X36708Y31885D01*
X36598Y31827D01*
X36502Y31748D01*
X36424Y31652D01*
X36373Y31556D01*
X36311Y31506D01*
X36230Y31407D01*
X36170Y31294D01*
X36133Y31172D01*
X36120Y31044D01*
X36133Y30917D01*
X36170Y30795D01*
X36230Y30682D01*
X36311Y30583D01*
X36373Y30533D01*
X36424Y30437D01*
X36502Y30341D01*
X36598Y30262D01*
X36708Y30204D01*
X36827Y30168D01*
X36950Y30156D01*
X37073Y30168D01*
X37192Y30204D01*
X37302Y30262D01*
X37398Y30341D01*
X37476Y30437D01*
X37527Y30533D01*
X37589Y30583D01*
X37670Y30682D01*
X37730Y30795D01*
X37767Y30917D01*
X37780Y31044D01*
X37767Y31172D01*
X37730Y31294D01*
X37670Y31407D01*
X37589Y31506D01*
X37527Y31556D01*
X37476Y31652D01*
X37398Y31748D01*
X37302Y31827D01*
X37192Y31885D01*
X37073Y31921D01*
X36950Y31933D01*
D02*
G37*
G36*
X34652Y29234D02*
Y29031D01*
X34855D01*
X34853Y29048D01*
X34827Y29111D01*
X34786Y29165D01*
X34732Y29206D01*
X34670Y29232D01*
X34652Y29234D01*
D02*
G37*
G36*
X34552D02*
X34535Y29232D01*
X34472Y29206D01*
X34419Y29165D01*
X34377Y29111D01*
X34351Y29048D01*
X34349Y29031D01*
X34552D01*
Y29234D01*
D02*
G37*
G36*
X34855Y28931D02*
X34652D01*
Y28728D01*
X34670Y28730D01*
X34732Y28756D01*
X34786Y28797D01*
X34827Y28851D01*
X34853Y28914D01*
X34855Y28931D01*
D02*
G37*
G36*
X34552D02*
X34349D01*
X34351Y28914D01*
X34377Y28851D01*
X34419Y28797D01*
X34472Y28756D01*
X34535Y28730D01*
X34552Y28728D01*
Y28931D01*
D02*
G37*
G36*
X41690Y29974D02*
X41517Y29957D01*
X41350Y29906D01*
X41196Y29824D01*
X41061Y29713D01*
X40950Y29578D01*
X40868Y29425D01*
X40817Y29258D01*
X40800Y29084D01*
X40817Y28910D01*
X40868Y28743D01*
X40950Y28589D01*
X41061Y28454D01*
X41196Y28344D01*
X41350Y28262D01*
X41517Y28211D01*
X41690Y28194D01*
X41864Y28211D01*
X42031Y28262D01*
X42185Y28344D01*
X42320Y28454D01*
X42430Y28589D01*
X42513Y28743D01*
X42563Y28910D01*
X42580Y29084D01*
X42563Y29258D01*
X42513Y29425D01*
X42430Y29578D01*
X42320Y29713D01*
X42185Y29824D01*
X42031Y29906D01*
X41864Y29957D01*
X41690Y29974D01*
D02*
G37*
G36*
X36950D02*
X36776Y29957D01*
X36609Y29906D01*
X36455Y29824D01*
X36321Y29713D01*
X36210Y29578D01*
X36128Y29425D01*
X36077Y29258D01*
X36060Y29084D01*
X36077Y28910D01*
X36128Y28743D01*
X36210Y28589D01*
X36321Y28454D01*
X36455Y28344D01*
X36609Y28262D01*
X36776Y28211D01*
X36950Y28194D01*
X37124Y28211D01*
X37291Y28262D01*
X37445Y28344D01*
X37579Y28454D01*
X37690Y28589D01*
X37772Y28743D01*
X37823Y28910D01*
X37840Y29084D01*
X37823Y29258D01*
X37772Y29425D01*
X37690Y29578D01*
X37579Y29713D01*
X37445Y29824D01*
X37291Y29906D01*
X37124Y29957D01*
X36950Y29974D01*
D02*
G37*
G36*
X39862Y28522D02*
Y28120D01*
X40264D01*
X40255Y28189D01*
X40209Y28299D01*
X40136Y28394D01*
X40041Y28467D01*
X39931Y28513D01*
X39862Y28522D01*
D02*
G37*
G36*
X2275Y28731D02*
X2162Y28716D01*
X2056Y28673D01*
X1966Y28603D01*
X1897Y28513D01*
X1853Y28408D01*
X1838Y28294D01*
X1853Y28181D01*
X1897Y28076D01*
X1966Y27986D01*
X2056Y27916D01*
X2162Y27873D01*
X2275Y27858D01*
X2388Y27873D01*
X2493Y27916D01*
X2584Y27986D01*
X2653Y28076D01*
X2697Y28181D01*
X2712Y28294D01*
X2697Y28408D01*
X2653Y28513D01*
X2584Y28603D01*
X2493Y28673D01*
X2388Y28716D01*
X2275Y28731D01*
D02*
G37*
G36*
X2611Y27631D02*
X2325D01*
Y27344D01*
X2611D01*
Y27631D01*
D02*
G37*
G36*
X2225D02*
X1939D01*
Y27344D01*
X2225D01*
Y27631D01*
D02*
G37*
G36*
X2611Y27244D02*
X2325D01*
Y26958D01*
X2611D01*
Y27244D01*
D02*
G37*
G36*
X2225D02*
X1939D01*
Y26958D01*
X2225D01*
Y27244D01*
D02*
G37*
G36*
X8465Y26371D02*
Y25832D01*
X8754D01*
Y26038D01*
X8743Y26126D01*
X8709Y26208D01*
X8655Y26278D01*
X8585Y26332D01*
X8503Y26366D01*
X8465Y26371D01*
D02*
G37*
G36*
X8365D02*
X8328Y26366D01*
X8246Y26332D01*
X8176Y26278D01*
X8122Y26208D01*
X8088Y26126D01*
X8076Y26038D01*
Y25832D01*
X8365D01*
Y26371D01*
D02*
G37*
G36*
X43485Y25858D02*
Y25655D01*
X43688D01*
X43686Y25672D01*
X43660Y25735D01*
X43619Y25789D01*
X43565Y25830D01*
X43502Y25856D01*
X43485Y25858D01*
D02*
G37*
G36*
X43385D02*
X43368Y25856D01*
X43305Y25830D01*
X43251Y25789D01*
X43210Y25735D01*
X43184Y25672D01*
X43182Y25655D01*
X43385D01*
Y25858D01*
D02*
G37*
G36*
X43688Y25555D02*
X43485D01*
Y25352D01*
X43502Y25354D01*
X43565Y25380D01*
X43619Y25421D01*
X43660Y25475D01*
X43686Y25538D01*
X43688Y25555D01*
D02*
G37*
G36*
X43385D02*
X43182D01*
X43184Y25538D01*
X43210Y25475D01*
X43251Y25421D01*
X43305Y25380D01*
X43368Y25354D01*
X43385Y25352D01*
Y25555D01*
D02*
G37*
G36*
X8754Y25732D02*
X8465D01*
Y25194D01*
X8503Y25199D01*
X8585Y25233D01*
X8655Y25287D01*
X8709Y25357D01*
X8743Y25439D01*
X8754Y25526D01*
Y25732D01*
D02*
G37*
G36*
X8365D02*
X8076D01*
Y25526D01*
X8088Y25439D01*
X8122Y25357D01*
X8176Y25287D01*
X8246Y25233D01*
X8328Y25199D01*
X8365Y25194D01*
Y25732D01*
D02*
G37*
G36*
X10384Y26475D02*
X10271Y26460D01*
X10165Y26416D01*
X10075Y26347D01*
X10006Y26257D01*
X9962Y26151D01*
X9947Y26038D01*
Y25526D01*
X9962Y25413D01*
X10006Y25308D01*
X10075Y25218D01*
X10165Y25148D01*
X10271Y25104D01*
X10384Y25090D01*
X10497Y25104D01*
X10602Y25148D01*
X10693Y25218D01*
X10762Y25308D01*
X10806Y25413D01*
X10821Y25526D01*
Y26038D01*
X10806Y26151D01*
X10762Y26257D01*
X10693Y26347D01*
X10602Y26416D01*
X10497Y26460D01*
X10384Y26475D01*
D02*
G37*
G36*
X20755Y24687D02*
Y24484D01*
X20958D01*
X20956Y24501D01*
X20930Y24564D01*
X20888Y24617D01*
X20835Y24659D01*
X20772Y24685D01*
X20755Y24687D01*
D02*
G37*
G36*
X20655D02*
X20637Y24685D01*
X20575Y24659D01*
X20521Y24617D01*
X20480Y24564D01*
X20454Y24501D01*
X20452Y24484D01*
X20655D01*
Y24687D01*
D02*
G37*
G36*
X20958Y24384D02*
X20755D01*
Y24181D01*
X20772Y24183D01*
X20835Y24209D01*
X20888Y24250D01*
X20930Y24304D01*
X20956Y24367D01*
X20958Y24384D01*
D02*
G37*
G36*
X20655D02*
X20452D01*
X20454Y24367D01*
X20480Y24304D01*
X20521Y24250D01*
X20575Y24209D01*
X20637Y24183D01*
X20655Y24181D01*
Y24384D01*
D02*
G37*
G36*
X43400Y24138D02*
X43284Y24126D01*
X43173Y24093D01*
X43070Y24038D01*
X42980Y23964D01*
X42907Y23874D01*
X42852Y23772D01*
X42818Y23660D01*
X42807Y23544D01*
X42818Y23429D01*
X42852Y23317D01*
X42907Y23215D01*
X42980Y23125D01*
X43070Y23051D01*
X43173Y22996D01*
X43284Y22962D01*
X43400Y22951D01*
X43516Y22962D01*
X43627Y22996D01*
X43730Y23051D01*
X43820Y23125D01*
X43893Y23215D01*
X43948Y23317D01*
X43982Y23429D01*
X43993Y23544D01*
X43982Y23660D01*
X43948Y23772D01*
X43893Y23874D01*
X43820Y23964D01*
X43730Y24038D01*
X43627Y24093D01*
X43516Y24126D01*
X43400Y24138D01*
D02*
G37*
G36*
X18543Y23848D02*
X18414Y23831D01*
X18293Y23780D01*
X18189Y23701D01*
X18109Y23597D01*
X18059Y23476D01*
X18042Y23346D01*
Y23159D01*
X18059Y23029D01*
X18109Y22908D01*
X18189Y22805D01*
X18293Y22725D01*
X18414Y22675D01*
X18543Y22658D01*
X18673Y22675D01*
X18794Y22725D01*
X18898Y22805D01*
X18977Y22908D01*
X19027Y23029D01*
X19044Y23159D01*
Y23346D01*
X19027Y23476D01*
X18977Y23597D01*
X18898Y23701D01*
X18794Y23780D01*
X18673Y23831D01*
X18543Y23848D01*
D02*
G37*
G36*
X15543D02*
X15414Y23831D01*
X15293Y23780D01*
X15189Y23701D01*
X15109Y23597D01*
X15059Y23476D01*
X15042Y23346D01*
Y23159D01*
X15059Y23029D01*
X15109Y22908D01*
X15189Y22805D01*
X15293Y22725D01*
X15414Y22675D01*
X15543Y22658D01*
X15673Y22675D01*
X15794Y22725D01*
X15898Y22805D01*
X15977Y22908D01*
X16027Y23029D01*
X16044Y23159D01*
Y23346D01*
X16027Y23476D01*
X15977Y23597D01*
X15898Y23701D01*
X15794Y23780D01*
X15673Y23831D01*
X15543Y23848D01*
D02*
G37*
G36*
X1132Y24133D02*
X1002Y24116D01*
X881Y24066D01*
X778Y23986D01*
X698Y23882D01*
X648Y23762D01*
X631Y23632D01*
X648Y23502D01*
X698Y23381D01*
X778Y23278D01*
X796Y23263D01*
Y23213D01*
X778Y23199D01*
X698Y23095D01*
X648Y22974D01*
X631Y22844D01*
X648Y22715D01*
X698Y22594D01*
X778Y22490D01*
X796Y22476D01*
Y22426D01*
X778Y22411D01*
X698Y22308D01*
X648Y22187D01*
X631Y22057D01*
X648Y21927D01*
X698Y21807D01*
X778Y21703D01*
X881Y21623D01*
X1002Y21573D01*
X1132Y21556D01*
X1262Y21573D01*
X1382Y21623D01*
X1486Y21703D01*
X1566Y21807D01*
X1616Y21927D01*
X1633Y22057D01*
X1616Y22187D01*
X1566Y22308D01*
X1486Y22411D01*
X1468Y22426D01*
Y22476D01*
X1486Y22490D01*
X1566Y22594D01*
X1616Y22715D01*
X1633Y22844D01*
X1616Y22974D01*
X1566Y23095D01*
X1486Y23199D01*
X1468Y23213D01*
Y23263D01*
X1486Y23278D01*
X1566Y23381D01*
X1616Y23502D01*
X1633Y23632D01*
X1616Y23762D01*
X1566Y23882D01*
X1486Y23986D01*
X1382Y24066D01*
X1262Y24116D01*
X1132Y24133D01*
D02*
G37*
G36*
X43400Y22366D02*
X43284Y22355D01*
X43173Y22321D01*
X43070Y22266D01*
X42980Y22192D01*
X42907Y22103D01*
X42852Y22000D01*
X42818Y21889D01*
X42807Y21773D01*
X42818Y21657D01*
X42852Y21546D01*
X42907Y21443D01*
X42980Y21353D01*
X43070Y21279D01*
X43173Y21225D01*
X43284Y21191D01*
X43400Y21179D01*
X43516Y21191D01*
X43627Y21225D01*
X43730Y21279D01*
X43820Y21353D01*
X43893Y21443D01*
X43948Y21546D01*
X43982Y21657D01*
X43993Y21773D01*
X43982Y21889D01*
X43948Y22000D01*
X43893Y22103D01*
X43820Y22192D01*
X43730Y22266D01*
X43627Y22321D01*
X43516Y22355D01*
X43400Y22366D01*
D02*
G37*
G36*
X40841D02*
X40725Y22355D01*
X40614Y22321D01*
X40511Y22266D01*
X40421Y22192D01*
X40348Y22103D01*
X40293Y22000D01*
X40259Y21889D01*
X40248Y21773D01*
X40259Y21657D01*
X40293Y21546D01*
X40348Y21443D01*
X40421Y21353D01*
X40511Y21279D01*
X40614Y21225D01*
X40725Y21191D01*
X40841Y21179D01*
X40957Y21191D01*
X41068Y21225D01*
X41171Y21279D01*
X41261Y21353D01*
X41334Y21443D01*
X41389Y21546D01*
X41423Y21657D01*
X41434Y21773D01*
X41423Y21889D01*
X41389Y22000D01*
X41334Y22103D01*
X41261Y22192D01*
X41171Y22266D01*
X41068Y22321D01*
X40957Y22355D01*
X40841Y22366D01*
D02*
G37*
G36*
X8829Y21883D02*
X8736Y21871D01*
X8650Y21835D01*
X8576Y21778D01*
X8519Y21704D01*
X8484Y21618D01*
X8471Y21526D01*
X8484Y21433D01*
X8519Y21347D01*
X8576Y21273D01*
X8650Y21216D01*
X8736Y21180D01*
X8829Y21168D01*
X8921Y21180D01*
X9007Y21216D01*
X9081Y21273D01*
X9138Y21347D01*
X9174Y21433D01*
X9186Y21526D01*
X9174Y21618D01*
X9138Y21704D01*
X9081Y21778D01*
X9007Y21835D01*
X8921Y21871D01*
X8829Y21883D01*
D02*
G37*
G36*
X44101Y20091D02*
Y19887D01*
X44304D01*
X44302Y19905D01*
X44276Y19967D01*
X44235Y20021D01*
X44181Y20062D01*
X44118Y20088D01*
X44101Y20091D01*
D02*
G37*
G36*
X44001D02*
X43984Y20088D01*
X43921Y20062D01*
X43868Y20021D01*
X43826Y19967D01*
X43800Y19905D01*
X43798Y19887D01*
X44001D01*
Y20091D01*
D02*
G37*
G36*
X39800D02*
Y19887D01*
X40003D01*
X40001Y19905D01*
X39975Y19967D01*
X39934Y20021D01*
X39880Y20062D01*
X39817Y20088D01*
X39800Y20091D01*
D02*
G37*
G36*
X39700D02*
X39683Y20088D01*
X39620Y20062D01*
X39566Y20021D01*
X39525Y19967D01*
X39499Y19905D01*
X39497Y19887D01*
X39700D01*
Y20091D01*
D02*
G37*
G36*
X44304Y19787D02*
X44101D01*
Y19584D01*
X44118Y19587D01*
X44181Y19612D01*
X44235Y19654D01*
X44276Y19708D01*
X44302Y19770D01*
X44304Y19787D01*
D02*
G37*
G36*
X44001D02*
X43798D01*
X43800Y19770D01*
X43826Y19708D01*
X43868Y19654D01*
X43921Y19612D01*
X43984Y19587D01*
X44001Y19584D01*
Y19787D01*
D02*
G37*
G36*
X40003D02*
X39800D01*
Y19584D01*
X39817Y19587D01*
X39880Y19612D01*
X39934Y19654D01*
X39975Y19708D01*
X40001Y19770D01*
X40003Y19787D01*
D02*
G37*
G36*
X39700D02*
X39497D01*
X39499Y19770D01*
X39525Y19708D01*
X39566Y19654D01*
X39620Y19612D01*
X39683Y19587D01*
X39700Y19584D01*
Y19787D01*
D02*
G37*
G36*
X5172Y20637D02*
X5037Y20623D01*
X4908Y20584D01*
X4788Y20520D01*
X4683Y20434D01*
X4597Y20329D01*
X4533Y20209D01*
X4493Y20080D01*
X4480Y19944D01*
X4493Y19809D01*
X4533Y19680D01*
X4597Y19560D01*
X4683Y19455D01*
X4788Y19369D01*
X4908Y19305D01*
X5037Y19265D01*
X5172Y19252D01*
X5307Y19265D01*
X5437Y19305D01*
X5557Y19369D01*
X5662Y19455D01*
X5748Y19560D01*
X5812Y19680D01*
X5851Y19809D01*
X5865Y19944D01*
X5851Y20080D01*
X5812Y20209D01*
X5748Y20329D01*
X5662Y20434D01*
X5557Y20520D01*
X5437Y20584D01*
X5307Y20623D01*
X5172Y20637D01*
D02*
G37*
G36*
X23820Y18615D02*
Y18076D01*
X24109D01*
Y18282D01*
X24097Y18370D01*
X24063Y18452D01*
X24009Y18522D01*
X23939Y18576D01*
X23857Y18610D01*
X23820Y18615D01*
D02*
G37*
G36*
X23720Y18615D02*
X23682Y18610D01*
X23600Y18576D01*
X23530Y18522D01*
X23476Y18452D01*
X23442Y18370D01*
X23431Y18282D01*
Y18076D01*
X23720D01*
Y18615D01*
D02*
G37*
G36*
X43400Y18655D02*
X43284Y18643D01*
X43173Y18609D01*
X43070Y18555D01*
X42980Y18481D01*
X42907Y18391D01*
X42852Y18288D01*
X42818Y18177D01*
X42807Y18061D01*
X42818Y17945D01*
X42852Y17834D01*
X42907Y17731D01*
X42980Y17642D01*
X43070Y17568D01*
X43173Y17513D01*
X43284Y17479D01*
X43400Y17468D01*
X43516Y17479D01*
X43627Y17513D01*
X43730Y17568D01*
X43820Y17642D01*
X43893Y17731D01*
X43948Y17834D01*
X43982Y17945D01*
X43993Y18061D01*
X43982Y18177D01*
X43948Y18288D01*
X43893Y18391D01*
X43820Y18481D01*
X43730Y18555D01*
X43627Y18609D01*
X43516Y18643D01*
X43400Y18655D01*
D02*
G37*
G36*
X23720Y17976D02*
X23431D01*
Y17770D01*
X23442Y17683D01*
X23476Y17601D01*
X23530Y17531D01*
X23600Y17477D01*
X23682Y17443D01*
X23720Y17438D01*
Y17976D01*
D02*
G37*
G36*
X24109D02*
X23820D01*
Y17438D01*
X23857Y17443D01*
X23939Y17477D01*
X24009Y17531D01*
X24063Y17601D01*
X24097Y17683D01*
X24109Y17770D01*
Y17976D01*
D02*
G37*
G36*
X8515Y17625D02*
Y17422D01*
X8718D01*
X8715Y17439D01*
X8689Y17502D01*
X8648Y17556D01*
X8594Y17597D01*
X8532Y17623D01*
X8515Y17625D01*
D02*
G37*
G36*
X8415D02*
X8397Y17623D01*
X8335Y17597D01*
X8281Y17556D01*
X8240Y17502D01*
X8214Y17439D01*
X8211Y17422D01*
X8415D01*
Y17625D01*
D02*
G37*
G36*
X33770Y18719D02*
X33657Y18704D01*
X33551Y18661D01*
X33461Y18591D01*
X33391Y18501D01*
X33348Y18395D01*
X33333Y18282D01*
Y17770D01*
X33348Y17657D01*
X33391Y17552D01*
X33461Y17462D01*
X33551Y17392D01*
X33657Y17349D01*
X33770Y17334D01*
X33883Y17349D01*
X33988Y17392D01*
X34079Y17462D01*
X34148Y17552D01*
X34192Y17657D01*
X34206Y17770D01*
Y18282D01*
X34192Y18395D01*
X34148Y18501D01*
X34079Y18591D01*
X33988Y18661D01*
X33883Y18704D01*
X33770Y18719D01*
D02*
G37*
G36*
X32770D02*
X32657Y18704D01*
X32551Y18661D01*
X32461Y18591D01*
X32391Y18501D01*
X32348Y18395D01*
X32333Y18282D01*
Y17770D01*
X32348Y17657D01*
X32391Y17552D01*
X32461Y17462D01*
X32551Y17392D01*
X32657Y17349D01*
X32770Y17334D01*
X32883Y17349D01*
X32988Y17392D01*
X33079Y17462D01*
X33148Y17552D01*
X33192Y17657D01*
X33206Y17770D01*
Y18282D01*
X33192Y18395D01*
X33148Y18501D01*
X33079Y18591D01*
X32988Y18661D01*
X32883Y18704D01*
X32770Y18719D01*
D02*
G37*
G36*
X31770D02*
X31657Y18704D01*
X31551Y18661D01*
X31461Y18591D01*
X31391Y18501D01*
X31348Y18395D01*
X31333Y18282D01*
Y17770D01*
X31348Y17657D01*
X31391Y17552D01*
X31461Y17462D01*
X31551Y17392D01*
X31657Y17349D01*
X31770Y17334D01*
X31883Y17349D01*
X31988Y17392D01*
X32079Y17462D01*
X32148Y17552D01*
X32192Y17657D01*
X32206Y17770D01*
Y18282D01*
X32192Y18395D01*
X32148Y18501D01*
X32079Y18591D01*
X31988Y18661D01*
X31883Y18704D01*
X31770Y18719D01*
D02*
G37*
G36*
X30770D02*
X30657Y18704D01*
X30551Y18661D01*
X30461Y18591D01*
X30391Y18501D01*
X30348Y18395D01*
X30333Y18282D01*
Y17770D01*
X30348Y17657D01*
X30391Y17552D01*
X30461Y17462D01*
X30551Y17392D01*
X30657Y17349D01*
X30770Y17334D01*
X30883Y17349D01*
X30988Y17392D01*
X31079Y17462D01*
X31148Y17552D01*
X31192Y17657D01*
X31206Y17770D01*
Y18282D01*
X31192Y18395D01*
X31148Y18501D01*
X31079Y18591D01*
X30988Y18661D01*
X30883Y18704D01*
X30770Y18719D01*
D02*
G37*
G36*
X29370Y20371D02*
X10994D01*
X10917Y20361D01*
X10845Y20332D01*
X10783Y20284D01*
X9921Y19422D01*
X9874Y19360D01*
X9844Y19289D01*
X9834Y19211D01*
Y17658D01*
X9778Y17615D01*
X9698Y17511D01*
X9648Y17390D01*
X9631Y17261D01*
X9648Y17131D01*
X9698Y17010D01*
X9778Y16906D01*
X9881Y16827D01*
X10002Y16777D01*
X10132Y16760D01*
X10262Y16777D01*
X10382Y16827D01*
X10486Y16906D01*
X10566Y17010D01*
X10605Y17104D01*
X10659D01*
X10698Y17010D01*
X10778Y16906D01*
X10881Y16827D01*
X11002Y16777D01*
X11132Y16760D01*
X11262Y16777D01*
X11382Y16827D01*
X11486Y16906D01*
X11566Y17010D01*
X11616Y17131D01*
X11633Y17261D01*
X11616Y17390D01*
X11566Y17511D01*
X11486Y17615D01*
X11410Y17674D01*
Y18986D01*
X11708Y19284D01*
X28371D01*
X28472Y19183D01*
Y18600D01*
X28461Y18591D01*
X28391Y18501D01*
X28348Y18395D01*
X28333Y18282D01*
Y17770D01*
X28348Y17657D01*
X28391Y17552D01*
X28461Y17462D01*
X28551Y17392D01*
X28657Y17349D01*
X28770Y17334D01*
X28883Y17349D01*
X28988Y17392D01*
X29079Y17462D01*
X29148Y17552D01*
X29192Y17657D01*
X29206Y17770D01*
Y18282D01*
X29192Y18395D01*
X29148Y18501D01*
X29079Y18591D01*
X29068Y18600D01*
Y19306D01*
X29068Y19306D01*
X29057Y19383D01*
X29028Y19455D01*
X28980Y19517D01*
X28980Y19517D01*
X28767Y19730D01*
X28786Y19776D01*
X29247D01*
X29486Y19537D01*
Y18610D01*
X29461Y18591D01*
X29391Y18501D01*
X29348Y18395D01*
X29333Y18282D01*
Y17770D01*
X29348Y17657D01*
X29391Y17552D01*
X29461Y17462D01*
X29551Y17392D01*
X29657Y17349D01*
X29770Y17334D01*
X29883Y17349D01*
X29988Y17392D01*
X30079Y17462D01*
X30148Y17552D01*
X30192Y17657D01*
X30206Y17770D01*
Y18282D01*
X30192Y18395D01*
X30148Y18501D01*
X30081Y18588D01*
Y19660D01*
X30071Y19737D01*
X30041Y19809D01*
X29994Y19871D01*
X29581Y20284D01*
X29519Y20332D01*
X29447Y20361D01*
X29370Y20371D01*
D02*
G37*
G36*
X27770Y18719D02*
X27657Y18704D01*
X27551Y18661D01*
X27461Y18591D01*
X27391Y18501D01*
X27348Y18395D01*
X27333Y18282D01*
Y17770D01*
X27348Y17657D01*
X27391Y17552D01*
X27461Y17462D01*
X27551Y17392D01*
X27657Y17349D01*
X27770Y17334D01*
X27883Y17349D01*
X27988Y17392D01*
X28079Y17462D01*
X28148Y17552D01*
X28192Y17657D01*
X28206Y17770D01*
Y18282D01*
X28192Y18395D01*
X28148Y18501D01*
X28079Y18591D01*
X27988Y18661D01*
X27883Y18704D01*
X27770Y18719D01*
D02*
G37*
G36*
X26770D02*
X26657Y18704D01*
X26551Y18661D01*
X26461Y18591D01*
X26391Y18501D01*
X26348Y18395D01*
X26333Y18282D01*
Y17770D01*
X26348Y17657D01*
X26391Y17552D01*
X26461Y17462D01*
X26551Y17392D01*
X26657Y17349D01*
X26770Y17334D01*
X26883Y17349D01*
X26988Y17392D01*
X27079Y17462D01*
X27148Y17552D01*
X27192Y17657D01*
X27206Y17770D01*
Y18282D01*
X27192Y18395D01*
X27148Y18501D01*
X27079Y18591D01*
X26988Y18661D01*
X26883Y18704D01*
X26770Y18719D01*
D02*
G37*
G36*
X25770D02*
X25657Y18704D01*
X25551Y18661D01*
X25461Y18591D01*
X25391Y18501D01*
X25348Y18395D01*
X25333Y18282D01*
Y17770D01*
X25348Y17657D01*
X25391Y17552D01*
X25461Y17462D01*
X25551Y17392D01*
X25657Y17349D01*
X25770Y17334D01*
X25883Y17349D01*
X25988Y17392D01*
X26079Y17462D01*
X26148Y17552D01*
X26192Y17657D01*
X26206Y17770D01*
Y18282D01*
X26192Y18395D01*
X26148Y18501D01*
X26079Y18591D01*
X25988Y18661D01*
X25883Y18704D01*
X25770Y18719D01*
D02*
G37*
G36*
X24770D02*
X24657Y18704D01*
X24551Y18661D01*
X24461Y18591D01*
X24391Y18501D01*
X24348Y18395D01*
X24333Y18282D01*
Y17770D01*
X24348Y17657D01*
X24391Y17552D01*
X24461Y17462D01*
X24551Y17392D01*
X24657Y17349D01*
X24770Y17334D01*
X24883Y17349D01*
X24988Y17392D01*
X25079Y17462D01*
X25148Y17552D01*
X25192Y17657D01*
X25206Y17770D01*
Y18282D01*
X25192Y18395D01*
X25148Y18501D01*
X25079Y18591D01*
X24988Y18661D01*
X24883Y18704D01*
X24770Y18719D01*
D02*
G37*
G36*
X22770D02*
X22657Y18704D01*
X22551Y18661D01*
X22461Y18591D01*
X22391Y18501D01*
X22348Y18395D01*
X22333Y18282D01*
Y17770D01*
X22348Y17657D01*
X22391Y17552D01*
X22461Y17462D01*
X22551Y17392D01*
X22657Y17349D01*
X22770Y17334D01*
X22883Y17349D01*
X22988Y17392D01*
X23079Y17462D01*
X23148Y17552D01*
X23192Y17657D01*
X23206Y17770D01*
Y18282D01*
X23192Y18395D01*
X23148Y18501D01*
X23079Y18591D01*
X22988Y18661D01*
X22883Y18704D01*
X22770Y18719D01*
D02*
G37*
G36*
X21770D02*
X21657Y18704D01*
X21551Y18661D01*
X21461Y18591D01*
X21391Y18501D01*
X21348Y18395D01*
X21333Y18282D01*
Y17770D01*
X21348Y17657D01*
X21391Y17552D01*
X21461Y17462D01*
X21551Y17392D01*
X21657Y17349D01*
X21770Y17334D01*
X21883Y17349D01*
X21988Y17392D01*
X22079Y17462D01*
X22148Y17552D01*
X22192Y17657D01*
X22206Y17770D01*
Y18282D01*
X22192Y18395D01*
X22148Y18501D01*
X22079Y18591D01*
X21988Y18661D01*
X21883Y18704D01*
X21770Y18719D01*
D02*
G37*
G36*
X20770D02*
X20657Y18704D01*
X20551Y18661D01*
X20461Y18591D01*
X20391Y18501D01*
X20348Y18395D01*
X20333Y18282D01*
Y17770D01*
X20348Y17657D01*
X20391Y17552D01*
X20461Y17462D01*
X20551Y17392D01*
X20657Y17349D01*
X20770Y17334D01*
X20883Y17349D01*
X20988Y17392D01*
X21079Y17462D01*
X21148Y17552D01*
X21192Y17657D01*
X21206Y17770D01*
Y18282D01*
X21192Y18395D01*
X21148Y18501D01*
X21079Y18591D01*
X20988Y18661D01*
X20883Y18704D01*
X20770Y18719D01*
D02*
G37*
G36*
X19770D02*
X19657Y18704D01*
X19551Y18661D01*
X19461Y18591D01*
X19391Y18501D01*
X19348Y18395D01*
X19333Y18282D01*
Y17770D01*
X19348Y17657D01*
X19391Y17552D01*
X19461Y17462D01*
X19551Y17392D01*
X19657Y17349D01*
X19770Y17334D01*
X19883Y17349D01*
X19988Y17392D01*
X20079Y17462D01*
X20148Y17552D01*
X20192Y17657D01*
X20206Y17770D01*
Y18282D01*
X20192Y18395D01*
X20148Y18501D01*
X20079Y18591D01*
X19988Y18661D01*
X19883Y18704D01*
X19770Y18719D01*
D02*
G37*
G36*
X18770D02*
X18657Y18704D01*
X18551Y18661D01*
X18461Y18591D01*
X18391Y18501D01*
X18348Y18395D01*
X18333Y18282D01*
Y17770D01*
X18348Y17657D01*
X18391Y17552D01*
X18461Y17462D01*
X18551Y17392D01*
X18657Y17349D01*
X18770Y17334D01*
X18883Y17349D01*
X18988Y17392D01*
X19079Y17462D01*
X19148Y17552D01*
X19192Y17657D01*
X19206Y17770D01*
Y18282D01*
X19192Y18395D01*
X19148Y18501D01*
X19079Y18591D01*
X18988Y18661D01*
X18883Y18704D01*
X18770Y18719D01*
D02*
G37*
G36*
X12182Y17658D02*
Y17311D01*
X12529D01*
X12522Y17365D01*
X12481Y17462D01*
X12417Y17546D01*
X12334Y17610D01*
X12236Y17650D01*
X12182Y17658D01*
D02*
G37*
G36*
X12082D02*
X12027Y17650D01*
X11930Y17610D01*
X11847Y17546D01*
X11782Y17462D01*
X11742Y17365D01*
X11735Y17311D01*
X12082D01*
Y17658D01*
D02*
G37*
G36*
X8718Y17322D02*
X8515D01*
Y17119D01*
X8532Y17121D01*
X8594Y17147D01*
X8648Y17188D01*
X8689Y17242D01*
X8715Y17305D01*
X8718Y17322D01*
D02*
G37*
G36*
X8415D02*
X8211D01*
X8214Y17305D01*
X8240Y17242D01*
X8281Y17188D01*
X8335Y17147D01*
X8397Y17121D01*
X8415Y17119D01*
Y17322D01*
D02*
G37*
G36*
X12529Y17211D02*
X12182D01*
Y16864D01*
X12236Y16871D01*
X12334Y16911D01*
X12417Y16975D01*
X12481Y17059D01*
X12522Y17156D01*
X12529Y17211D01*
D02*
G37*
G36*
X12082D02*
X11735D01*
X11742Y17156D01*
X11782Y17059D01*
X11847Y16975D01*
X11930Y16911D01*
X12027Y16871D01*
X12082Y16864D01*
Y17211D01*
D02*
G37*
G36*
X3100Y24133D02*
X2971Y24116D01*
X2850Y24066D01*
X2746Y23986D01*
X2666Y23882D01*
X2616Y23762D01*
X2599Y23632D01*
X2616Y23502D01*
X2666Y23381D01*
X2746Y23278D01*
X2765Y23263D01*
Y23213D01*
X2746Y23199D01*
X2666Y23095D01*
X2616Y22974D01*
X2599Y22844D01*
X2616Y22715D01*
X2666Y22594D01*
X2746Y22490D01*
X2765Y22476D01*
Y22426D01*
X2746Y22411D01*
X2666Y22308D01*
X2616Y22187D01*
X2599Y22057D01*
X2616Y21927D01*
X2666Y21807D01*
X2746Y21703D01*
X2850Y21623D01*
X2971Y21573D01*
X3100Y21556D01*
X3230Y21573D01*
X3351Y21623D01*
X3455Y21703D01*
X3534Y21807D01*
X3584Y21927D01*
X3602Y22057D01*
X3584Y22187D01*
X3534Y22308D01*
X3466Y22397D01*
X3485Y22447D01*
X6642D01*
X7014Y22075D01*
Y16503D01*
X6803Y16292D01*
X6726D01*
X6668Y16432D01*
X6571Y16591D01*
X6450Y16732D01*
X6309Y16853D01*
X6150Y16950D01*
X5978Y17021D01*
X5798Y17065D01*
X5612Y17079D01*
X5427Y17065D01*
X5246Y17021D01*
X5074Y16950D01*
X4916Y16853D01*
X4774Y16732D01*
X4654Y16591D01*
X4557Y16432D01*
X4485Y16261D01*
X4442Y16080D01*
X4427Y15894D01*
X4442Y15709D01*
X4485Y15528D01*
X4557Y15357D01*
X4654Y15198D01*
X4700Y15143D01*
X4674Y15101D01*
X4601Y15118D01*
X4481Y15128D01*
Y14094D01*
X5515D01*
X5505Y14214D01*
X5465Y14380D01*
X5400Y14538D01*
X5311Y14683D01*
X5292Y14705D01*
X5320Y14750D01*
X5427Y14724D01*
X5612Y14710D01*
X5798Y14724D01*
X5978Y14768D01*
X6150Y14839D01*
X6309Y14936D01*
X6450Y15057D01*
X6571Y15198D01*
X6668Y15357D01*
X6726Y15497D01*
X6967D01*
X7070Y15511D01*
X7166Y15551D01*
X7248Y15614D01*
X7692Y16058D01*
X7755Y16140D01*
X7795Y16236D01*
X7809Y16339D01*
Y22239D01*
X7795Y22342D01*
X7755Y22438D01*
X7692Y22520D01*
X7087Y23125D01*
X7005Y23188D01*
X6909Y23228D01*
X6806Y23242D01*
X3485D01*
X3466Y23292D01*
X3534Y23381D01*
X3584Y23502D01*
X3602Y23632D01*
X3584Y23762D01*
X3534Y23882D01*
X3455Y23986D01*
X3351Y24066D01*
X3230Y24116D01*
X3100Y24133D01*
D02*
G37*
G36*
X3300Y16978D02*
Y15944D01*
X4334D01*
X4324Y16065D01*
X4284Y16231D01*
X4219Y16388D01*
X4130Y16534D01*
X4019Y16664D01*
X3889Y16774D01*
X3744Y16864D01*
X3586Y16929D01*
X3420Y16969D01*
X3300Y16978D01*
D02*
G37*
G36*
X3200D02*
X3080Y16969D01*
X2914Y16929D01*
X2756Y16864D01*
X2611Y16774D01*
X2481Y16664D01*
X2370Y16534D01*
X2281Y16388D01*
X2216Y16231D01*
X2176Y16065D01*
X2166Y15944D01*
X3200D01*
Y16978D01*
D02*
G37*
G36*
X17770Y18719D02*
X17657Y18704D01*
X17551Y18661D01*
X17461Y18591D01*
X17391Y18501D01*
X17348Y18395D01*
X17333Y18282D01*
Y17770D01*
X17348Y17657D01*
X17391Y17552D01*
X17461Y17462D01*
X17472Y17453D01*
Y16920D01*
X17482Y16843D01*
X17512Y16771D01*
X17559Y16709D01*
X18254Y16015D01*
X18254Y16015D01*
X18316Y15967D01*
X18326Y15963D01*
X18317Y15913D01*
X18012D01*
X17996Y15934D01*
X17903Y16005D01*
X17794Y16050D01*
X17677Y16066D01*
X17561Y16050D01*
X17452Y16005D01*
X17358Y15934D01*
X17287Y15840D01*
X17242Y15732D01*
X17226Y15615D01*
X17242Y15498D01*
X17287Y15390D01*
X17358Y15296D01*
X17452Y15225D01*
X17561Y15180D01*
X17677Y15164D01*
X17794Y15180D01*
X17903Y15225D01*
X17996Y15296D01*
X18012Y15317D01*
X32121D01*
X32458Y14980D01*
Y12588D01*
X32391Y12501D01*
X32348Y12395D01*
X32333Y12282D01*
Y11770D01*
X32348Y11657D01*
X32391Y11552D01*
X32461Y11462D01*
X32551Y11392D01*
X32657Y11349D01*
X32770Y11334D01*
X32883Y11349D01*
X32988Y11392D01*
X33079Y11462D01*
X33148Y11552D01*
X33192Y11657D01*
X33206Y11770D01*
Y12282D01*
X33192Y12395D01*
X33148Y12501D01*
X33079Y12591D01*
X33054Y12610D01*
Y15103D01*
X33044Y15180D01*
X33014Y15252D01*
X32966Y15314D01*
X32966Y15314D01*
X32455Y15826D01*
X32393Y15873D01*
X32382Y15877D01*
X32392Y15927D01*
X33843D01*
X34308Y15462D01*
Y11914D01*
X34319Y11837D01*
X34348Y11765D01*
X34396Y11704D01*
X34721Y11379D01*
X34782Y11331D01*
X34854Y11302D01*
X34931Y11292D01*
X34931Y11292D01*
X36402D01*
X36740Y10954D01*
Y7904D01*
X36412Y7576D01*
X30591D01*
X30575Y7597D01*
X30481Y7669D01*
X30373Y7714D01*
X30256Y7729D01*
X30139Y7714D01*
X30031Y7669D01*
X29937Y7597D01*
X29866Y7504D01*
X29821Y7395D01*
X29805Y7278D01*
X29821Y7162D01*
X29866Y7053D01*
X29937Y6960D01*
X30031Y6888D01*
X30139Y6843D01*
X30256Y6828D01*
X30373Y6843D01*
X30481Y6888D01*
X30575Y6960D01*
X30591Y6981D01*
X36535D01*
X36613Y6991D01*
X36684Y7020D01*
X36746Y7068D01*
X37248Y7570D01*
X37248Y7570D01*
X37295Y7631D01*
X37325Y7703D01*
X37335Y7780D01*
Y11078D01*
X37325Y11155D01*
X37295Y11226D01*
X37248Y11288D01*
X36736Y11800D01*
X36674Y11847D01*
X36603Y11877D01*
X36526Y11887D01*
X35054D01*
X34904Y12038D01*
Y15585D01*
X34904Y15585D01*
X34894Y15663D01*
X34864Y15734D01*
X34817Y15796D01*
X34177Y16436D01*
X34115Y16483D01*
X34044Y16513D01*
X33967Y16523D01*
X18588D01*
X18068Y17043D01*
Y17453D01*
X18079Y17462D01*
X18148Y17552D01*
X18192Y17657D01*
X18206Y17770D01*
Y18282D01*
X18192Y18395D01*
X18148Y18501D01*
X18079Y18591D01*
X17988Y18661D01*
X17883Y18704D01*
X17770Y18719D01*
D02*
G37*
G36*
X43400Y16883D02*
X43284Y16872D01*
X43173Y16838D01*
X43070Y16783D01*
X42980Y16709D01*
X42907Y16619D01*
X42852Y16517D01*
X42818Y16405D01*
X42807Y16289D01*
X42818Y16174D01*
X42852Y16062D01*
X42907Y15960D01*
X42980Y15870D01*
X43070Y15796D01*
X43173Y15741D01*
X43284Y15707D01*
X43400Y15696D01*
X43516Y15707D01*
X43627Y15741D01*
X43730Y15796D01*
X43820Y15870D01*
X43893Y15960D01*
X43948Y16062D01*
X43982Y16174D01*
X43993Y16289D01*
X43982Y16405D01*
X43948Y16517D01*
X43893Y16619D01*
X43820Y16709D01*
X43730Y16783D01*
X43627Y16838D01*
X43516Y16872D01*
X43400Y16883D01*
D02*
G37*
G36*
X40841D02*
X40725Y16872D01*
X40614Y16838D01*
X40511Y16783D01*
X40421Y16709D01*
X40348Y16619D01*
X40293Y16517D01*
X40259Y16405D01*
X40248Y16289D01*
X40259Y16174D01*
X40293Y16062D01*
X40348Y15960D01*
X40421Y15870D01*
X40511Y15796D01*
X40614Y15741D01*
X40725Y15707D01*
X40841Y15696D01*
X40957Y15707D01*
X41068Y15741D01*
X41171Y15796D01*
X41261Y15870D01*
X41334Y15960D01*
X41389Y16062D01*
X41423Y16174D01*
X41434Y16289D01*
X41423Y16405D01*
X41389Y16517D01*
X41334Y16619D01*
X41261Y16709D01*
X41171Y16783D01*
X41068Y16838D01*
X40957Y16872D01*
X40841Y16883D01*
D02*
G37*
G36*
X3200Y15844D02*
X2166D01*
X2176Y15724D01*
X2216Y15558D01*
X2281Y15401D01*
X2370Y15255D01*
X2481Y15125D01*
X2611Y15015D01*
X2756Y14925D01*
X2914Y14860D01*
X3080Y14820D01*
X3200Y14811D01*
Y15844D01*
D02*
G37*
G36*
X39304Y14480D02*
Y14277D01*
X39508D01*
X39505Y14294D01*
X39479Y14357D01*
X39438Y14410D01*
X39384Y14452D01*
X39322Y14478D01*
X39304Y14480D01*
D02*
G37*
G36*
X39204D02*
X39187Y14478D01*
X39125Y14452D01*
X39071Y14410D01*
X39030Y14357D01*
X39004Y14294D01*
X39001Y14277D01*
X39204D01*
Y14480D01*
D02*
G37*
G36*
X43973Y14451D02*
Y14248D01*
X44176D01*
X44174Y14265D01*
X44148Y14327D01*
X44107Y14381D01*
X44053Y14423D01*
X43990Y14448D01*
X43973Y14451D01*
D02*
G37*
G36*
X43873D02*
X43856Y14448D01*
X43793Y14423D01*
X43740Y14381D01*
X43698Y14327D01*
X43672Y14265D01*
X43670Y14248D01*
X43873D01*
Y14451D01*
D02*
G37*
G36*
X4334Y15844D02*
X3300D01*
Y14811D01*
X3420Y14820D01*
X3586Y14860D01*
X3691Y14904D01*
X3717Y14860D01*
X3662Y14813D01*
X3551Y14683D01*
X3462Y14538D01*
X3397Y14380D01*
X3357Y14214D01*
X3347Y14094D01*
X4381D01*
Y15128D01*
X4261Y15118D01*
X4095Y15078D01*
X3990Y15035D01*
X3964Y15078D01*
X4019Y15125D01*
X4130Y15255D01*
X4219Y15401D01*
X4284Y15558D01*
X4324Y15724D01*
X4334Y15844D01*
D02*
G37*
G36*
X39508Y14177D02*
X39304D01*
Y13974D01*
X39322Y13976D01*
X39384Y14002D01*
X39438Y14043D01*
X39479Y14097D01*
X39505Y14159D01*
X39508Y14177D01*
D02*
G37*
G36*
X39204D02*
X39001D01*
X39004Y14159D01*
X39030Y14097D01*
X39071Y14043D01*
X39125Y14002D01*
X39187Y13976D01*
X39204Y13974D01*
Y14177D01*
D02*
G37*
G36*
X44176Y14148D02*
X43973D01*
Y13945D01*
X43990Y13947D01*
X44053Y13973D01*
X44107Y14014D01*
X44148Y14068D01*
X44174Y14130D01*
X44176Y14148D01*
D02*
G37*
G36*
X43873D02*
X43670D01*
X43672Y14130D01*
X43698Y14068D01*
X43740Y14014D01*
X43793Y13973D01*
X43856Y13947D01*
X43873Y13945D01*
Y14148D01*
D02*
G37*
G36*
X5515Y13994D02*
X4481D01*
Y12960D01*
X4601Y12970D01*
X4767Y13010D01*
X4925Y13075D01*
X5070Y13164D01*
X5200Y13275D01*
X5311Y13405D01*
X5400Y13550D01*
X5465Y13708D01*
X5505Y13874D01*
X5515Y13994D01*
D02*
G37*
G36*
X4381D02*
X3347D01*
X3357Y13874D01*
X3397Y13708D01*
X3462Y13550D01*
X3551Y13405D01*
X3662Y13275D01*
X3792Y13164D01*
X3937Y13075D01*
X4095Y13010D01*
X4261Y12970D01*
X4381Y12960D01*
Y13994D01*
D02*
G37*
G36*
X25820Y12615D02*
Y12076D01*
X26109D01*
Y12282D01*
X26097Y12370D01*
X26063Y12452D01*
X26009Y12522D01*
X25939Y12576D01*
X25857Y12610D01*
X25820Y12615D01*
D02*
G37*
G36*
X25720Y12615D02*
X25682Y12610D01*
X25600Y12576D01*
X25530Y12522D01*
X25476Y12452D01*
X25442Y12370D01*
X25431Y12282D01*
Y12076D01*
X25720D01*
Y12615D01*
D02*
G37*
G36*
X43389Y12921D02*
X43274Y12910D01*
X43162Y12876D01*
X43060Y12821D01*
X42970Y12747D01*
X42896Y12658D01*
X42841Y12555D01*
X42807Y12444D01*
X42796Y12328D01*
X42807Y12212D01*
X42841Y12101D01*
X42896Y11998D01*
X42970Y11908D01*
X43060Y11834D01*
X43162Y11780D01*
X43274Y11746D01*
X43389Y11734D01*
X43505Y11746D01*
X43616Y11780D01*
X43719Y11834D01*
X43809Y11908D01*
X43883Y11998D01*
X43938Y12101D01*
X43971Y12212D01*
X43983Y12328D01*
X43971Y12444D01*
X43938Y12555D01*
X43883Y12658D01*
X43809Y12747D01*
X43719Y12821D01*
X43616Y12876D01*
X43505Y12910D01*
X43389Y12921D01*
D02*
G37*
G36*
X25720Y11976D02*
X25431D01*
Y11770D01*
X25442Y11683D01*
X25476Y11601D01*
X25530Y11531D01*
X25600Y11477D01*
X25682Y11443D01*
X25720Y11438D01*
Y11976D01*
D02*
G37*
G36*
X26109D02*
X25820D01*
Y11438D01*
X25857Y11443D01*
X25939Y11477D01*
X26009Y11531D01*
X26063Y11601D01*
X26097Y11683D01*
X26109Y11770D01*
Y11976D01*
D02*
G37*
G36*
X33770Y12719D02*
X33657Y12704D01*
X33551Y12661D01*
X33461Y12591D01*
X33391Y12501D01*
X33348Y12395D01*
X33333Y12282D01*
Y11770D01*
X33348Y11657D01*
X33391Y11552D01*
X33461Y11462D01*
X33551Y11392D01*
X33657Y11349D01*
X33770Y11334D01*
X33883Y11349D01*
X33988Y11392D01*
X34079Y11462D01*
X34148Y11552D01*
X34192Y11657D01*
X34206Y11770D01*
Y12282D01*
X34192Y12395D01*
X34148Y12501D01*
X34079Y12591D01*
X33988Y12661D01*
X33883Y12704D01*
X33770Y12719D01*
D02*
G37*
G36*
X31770D02*
X31657Y12704D01*
X31551Y12661D01*
X31461Y12591D01*
X31391Y12501D01*
X31348Y12395D01*
X31333Y12282D01*
Y11770D01*
X31348Y11657D01*
X31391Y11552D01*
X31461Y11462D01*
X31551Y11392D01*
X31657Y11349D01*
X31770Y11334D01*
X31883Y11349D01*
X31988Y11392D01*
X32079Y11462D01*
X32148Y11552D01*
X32192Y11657D01*
X32206Y11770D01*
Y12282D01*
X32192Y12395D01*
X32148Y12501D01*
X32079Y12591D01*
X31988Y12661D01*
X31883Y12704D01*
X31770Y12719D01*
D02*
G37*
G36*
X20770D02*
X20657Y12704D01*
X20551Y12661D01*
X20461Y12591D01*
X20391Y12501D01*
X20348Y12395D01*
X20333Y12282D01*
Y11770D01*
X20348Y11657D01*
X20391Y11552D01*
X20461Y11462D01*
X20551Y11392D01*
X20657Y11349D01*
X20770Y11334D01*
X20883Y11349D01*
X20988Y11392D01*
X21079Y11462D01*
X21148Y11552D01*
X21192Y11657D01*
X21206Y11770D01*
Y12282D01*
X21192Y12395D01*
X21148Y12501D01*
X21079Y12591D01*
X20988Y12661D01*
X20883Y12704D01*
X20770Y12719D01*
D02*
G37*
G36*
X19770D02*
X19657Y12704D01*
X19551Y12661D01*
X19461Y12591D01*
X19391Y12501D01*
X19348Y12395D01*
X19333Y12282D01*
Y11770D01*
X19348Y11657D01*
X19391Y11552D01*
X19461Y11462D01*
X19551Y11392D01*
X19657Y11349D01*
X19770Y11334D01*
X19883Y11349D01*
X19988Y11392D01*
X20079Y11462D01*
X20148Y11552D01*
X20192Y11657D01*
X20206Y11770D01*
Y12282D01*
X20192Y12395D01*
X20148Y12501D01*
X20079Y12591D01*
X19988Y12661D01*
X19883Y12704D01*
X19770Y12719D01*
D02*
G37*
G36*
X18770D02*
X18657Y12704D01*
X18551Y12661D01*
X18461Y12591D01*
X18391Y12501D01*
X18348Y12395D01*
X18333Y12282D01*
Y11770D01*
X18348Y11657D01*
X18391Y11552D01*
X18461Y11462D01*
X18551Y11392D01*
X18657Y11349D01*
X18770Y11334D01*
X18883Y11349D01*
X18988Y11392D01*
X19079Y11462D01*
X19148Y11552D01*
X19192Y11657D01*
X19206Y11770D01*
Y12282D01*
X19192Y12395D01*
X19148Y12501D01*
X19079Y12591D01*
X18988Y12661D01*
X18883Y12704D01*
X18770Y12719D01*
D02*
G37*
G36*
X17770D02*
X17657Y12704D01*
X17551Y12661D01*
X17461Y12591D01*
X17391Y12501D01*
X17348Y12395D01*
X17333Y12282D01*
Y11770D01*
X17348Y11657D01*
X17391Y11552D01*
X17461Y11462D01*
X17551Y11392D01*
X17657Y11349D01*
X17770Y11334D01*
X17883Y11349D01*
X17988Y11392D01*
X18079Y11462D01*
X18148Y11552D01*
X18192Y11657D01*
X18206Y11770D01*
Y12282D01*
X18192Y12395D01*
X18148Y12501D01*
X18079Y12591D01*
X17988Y12661D01*
X17883Y12704D01*
X17770Y12719D01*
D02*
G37*
G36*
X16770D02*
X16657Y12704D01*
X16551Y12661D01*
X16461Y12591D01*
X16391Y12501D01*
X16348Y12395D01*
X16333Y12282D01*
Y11770D01*
X16348Y11657D01*
X16391Y11552D01*
X16461Y11462D01*
X16551Y11392D01*
X16657Y11349D01*
X16770Y11334D01*
X16883Y11349D01*
X16988Y11392D01*
X17079Y11462D01*
X17148Y11552D01*
X17192Y11657D01*
X17206Y11770D01*
Y12282D01*
X17192Y12395D01*
X17148Y12501D01*
X17079Y12591D01*
X16988Y12661D01*
X16883Y12704D01*
X16770Y12719D01*
D02*
G37*
G36*
X15770D02*
X15657Y12704D01*
X15551Y12661D01*
X15461Y12591D01*
X15391Y12501D01*
X15348Y12395D01*
X15333Y12282D01*
Y11770D01*
X15348Y11657D01*
X15391Y11552D01*
X15461Y11462D01*
X15551Y11392D01*
X15657Y11349D01*
X15770Y11334D01*
X15883Y11349D01*
X15988Y11392D01*
X16079Y11462D01*
X16148Y11552D01*
X16192Y11657D01*
X16206Y11770D01*
Y12282D01*
X16192Y12395D01*
X16148Y12501D01*
X16079Y12591D01*
X15988Y12661D01*
X15883Y12704D01*
X15770Y12719D01*
D02*
G37*
G36*
X2250Y11433D02*
Y10894D01*
X2539D01*
Y11100D01*
X2528Y11188D01*
X2494Y11270D01*
X2440Y11340D01*
X2370Y11394D01*
X2288Y11428D01*
X2250Y11433D01*
D02*
G37*
G36*
X2150D02*
X2112Y11428D01*
X2030Y11394D01*
X1960Y11340D01*
X1906Y11270D01*
X1872Y11188D01*
X1861Y11100D01*
Y10894D01*
X2150D01*
Y11433D01*
D02*
G37*
G36*
X15203Y12715D02*
X14337D01*
Y11337D01*
X14472D01*
Y10506D01*
X14482Y10429D01*
X14511Y10359D01*
X14508Y10352D01*
X14480Y10316D01*
X14446Y10326D01*
X14331Y10338D01*
X14215Y10326D01*
X14104Y10292D01*
X14001Y10237D01*
X13911Y10164D01*
X13837Y10074D01*
X13782Y9971D01*
X13749Y9860D01*
X13737Y9744D01*
X13749Y9628D01*
X13782Y9517D01*
X13837Y9414D01*
X13911Y9324D01*
X14001Y9251D01*
X14104Y9196D01*
X14215Y9162D01*
X14331Y9151D01*
X14446Y9162D01*
X14558Y9196D01*
X14660Y9251D01*
X14750Y9324D01*
X14824Y9414D01*
X14879Y9517D01*
X14913Y9628D01*
X14924Y9744D01*
X14913Y9860D01*
X14884Y9956D01*
X14903Y9983D01*
X14908Y9988D01*
X14922Y9997D01*
X14990Y9988D01*
X15530D01*
X15690Y9827D01*
Y8185D01*
X15700Y8108D01*
X15730Y8036D01*
X15777Y7975D01*
X15995Y7757D01*
X15995Y7757D01*
X16057Y7709D01*
X16129Y7680D01*
X16206Y7670D01*
X16206Y7670D01*
X16382D01*
X16396Y7643D01*
X16470Y7553D01*
X16560Y7479D01*
X16663Y7424D01*
X16774Y7390D01*
X16890Y7379D01*
X17006Y7390D01*
X17117Y7424D01*
X17219Y7479D01*
X17309Y7553D01*
X17383Y7643D01*
X17438Y7745D01*
X17472Y7857D01*
X17483Y7972D01*
X17472Y8088D01*
X17438Y8200D01*
X17383Y8302D01*
X17309Y8392D01*
X17219Y8466D01*
X17117Y8521D01*
X17006Y8554D01*
X16890Y8566D01*
X16774Y8554D01*
X16663Y8521D01*
X16560Y8466D01*
X16470Y8392D01*
X16396Y8302D01*
X16377Y8265D01*
X16329D01*
X16286Y8309D01*
Y9951D01*
X16286Y9951D01*
X16276Y10028D01*
X16246Y10100D01*
X16199Y10161D01*
X15864Y10496D01*
X15802Y10543D01*
X15731Y10573D01*
X15654Y10583D01*
X15114D01*
X15068Y10629D01*
Y11337D01*
X15203D01*
Y12715D01*
D02*
G37*
G36*
X2539Y10794D02*
X2250D01*
Y10256D01*
X2288Y10261D01*
X2370Y10295D01*
X2440Y10349D01*
X2494Y10419D01*
X2528Y10501D01*
X2539Y10589D01*
Y10794D01*
D02*
G37*
G36*
X2150D02*
X1861D01*
Y10589D01*
X1872Y10501D01*
X1906Y10419D01*
X1960Y10349D01*
X2030Y10295D01*
X2112Y10261D01*
X2150Y10256D01*
Y10794D01*
D02*
G37*
G36*
X3184Y11537D02*
X3071Y11522D01*
X2966Y11479D01*
X2875Y11409D01*
X2806Y11319D01*
X2762Y11213D01*
X2747Y11100D01*
Y10589D01*
X2762Y10476D01*
X2806Y10370D01*
X2875Y10280D01*
X2966Y10210D01*
X3071Y10167D01*
X3184Y10152D01*
X3297Y10167D01*
X3403Y10210D01*
X3493Y10280D01*
X3563Y10370D01*
X3606Y10476D01*
X3621Y10589D01*
Y11100D01*
X3606Y11213D01*
X3563Y11319D01*
X3493Y11409D01*
X3403Y11479D01*
X3297Y11522D01*
X3184Y11537D01*
D02*
G37*
G36*
X26770Y12719D02*
X26657Y12704D01*
X26551Y12661D01*
X26461Y12591D01*
X26391Y12501D01*
X26348Y12395D01*
X26333Y12282D01*
Y11770D01*
X26348Y11657D01*
X26391Y11552D01*
X26461Y11462D01*
X26472Y11453D01*
Y10293D01*
X26261Y10082D01*
X26193D01*
X26174Y10108D01*
X26079Y10180D01*
X25969Y10226D01*
X25851Y10241D01*
X25733Y10226D01*
X25622Y10180D01*
X25528Y10108D01*
X25455Y10013D01*
X25410Y9903D01*
X25394Y9785D01*
X25410Y9666D01*
X25455Y9556D01*
X25528Y9462D01*
X25622Y9389D01*
X25733Y9344D01*
X25851Y9328D01*
X25969Y9344D01*
X26079Y9389D01*
X26174Y9462D01*
X26193Y9487D01*
X26384D01*
X26461Y9497D01*
X26533Y9527D01*
X26595Y9574D01*
X26980Y9959D01*
X27028Y10021D01*
X27057Y10093D01*
X27068Y10170D01*
Y11453D01*
X27079Y11462D01*
X27148Y11552D01*
X27192Y11657D01*
X27206Y11770D01*
Y12282D01*
X27192Y12395D01*
X27148Y12501D01*
X27079Y12591D01*
X26988Y12661D01*
X26883Y12704D01*
X26770Y12719D01*
D02*
G37*
G36*
X43389Y11150D02*
X43274Y11138D01*
X43162Y11104D01*
X43060Y11050D01*
X42970Y10976D01*
X42896Y10886D01*
X42841Y10783D01*
X42807Y10672D01*
X42796Y10556D01*
X42807Y10440D01*
X42841Y10329D01*
X42896Y10226D01*
X42970Y10137D01*
X43060Y10063D01*
X43162Y10008D01*
X43274Y9974D01*
X43389Y9963D01*
X43505Y9974D01*
X43616Y10008D01*
X43719Y10063D01*
X43809Y10137D01*
X43883Y10226D01*
X43938Y10329D01*
X43971Y10440D01*
X43983Y10556D01*
X43971Y10672D01*
X43938Y10783D01*
X43883Y10886D01*
X43809Y10976D01*
X43719Y11050D01*
X43616Y11104D01*
X43505Y11138D01*
X43389Y11150D01*
D02*
G37*
G36*
X40830D02*
X40715Y11138D01*
X40603Y11104D01*
X40501Y11050D01*
X40411Y10976D01*
X40337Y10886D01*
X40282Y10783D01*
X40248Y10672D01*
X40237Y10556D01*
X40248Y10440D01*
X40282Y10329D01*
X40337Y10226D01*
X40411Y10137D01*
X40501Y10063D01*
X40603Y10008D01*
X40715Y9974D01*
X40830Y9963D01*
X40946Y9974D01*
X41057Y10008D01*
X41160Y10063D01*
X41250Y10137D01*
X41324Y10226D01*
X41379Y10329D01*
X41412Y10440D01*
X41424Y10556D01*
X41412Y10672D01*
X41379Y10783D01*
X41324Y10886D01*
X41250Y10976D01*
X41160Y11050D01*
X41057Y11104D01*
X40946Y11138D01*
X40830Y11150D01*
D02*
G37*
G36*
X16940Y10235D02*
Y9794D01*
X17381D01*
X17371Y9873D01*
X17321Y9993D01*
X17242Y10096D01*
X17139Y10175D01*
X17019Y10225D01*
X16940Y10235D01*
D02*
G37*
G36*
X16840D02*
X16761Y10225D01*
X16641Y10175D01*
X16538Y10096D01*
X16459Y9993D01*
X16409Y9873D01*
X16398Y9794D01*
X16840D01*
Y10235D01*
D02*
G37*
G36*
X27770Y12719D02*
X27657Y12704D01*
X27551Y12661D01*
X27461Y12591D01*
X27391Y12501D01*
X27348Y12395D01*
X27333Y12282D01*
Y11770D01*
X27348Y11657D01*
X27391Y11552D01*
X27461Y11462D01*
X27484Y11443D01*
Y10127D01*
X27459Y10108D01*
X27387Y10013D01*
X27341Y9903D01*
X27326Y9785D01*
X27341Y9666D01*
X27387Y9556D01*
X27459Y9462D01*
X27554Y9389D01*
X27664Y9344D01*
X27782Y9328D01*
X27900Y9344D01*
X28011Y9389D01*
X28105Y9462D01*
X28178Y9556D01*
X28223Y9666D01*
X28239Y9785D01*
X28223Y9903D01*
X28178Y10013D01*
X28105Y10108D01*
X28080Y10127D01*
Y11464D01*
X28148Y11552D01*
X28192Y11657D01*
X28206Y11770D01*
Y12282D01*
X28192Y12395D01*
X28148Y12501D01*
X28079Y12591D01*
X27988Y12661D01*
X27883Y12704D01*
X27770Y12719D01*
D02*
G37*
G36*
X17381Y9694D02*
X16940D01*
Y9253D01*
X17019Y9263D01*
X17139Y9313D01*
X17242Y9392D01*
X17321Y9495D01*
X17371Y9615D01*
X17381Y9694D01*
D02*
G37*
G36*
X16840D02*
X16398D01*
X16409Y9615D01*
X16459Y9495D01*
X16538Y9392D01*
X16641Y9313D01*
X16761Y9263D01*
X16840Y9253D01*
Y9694D01*
D02*
G37*
G36*
X43973Y8772D02*
Y8569D01*
X44176D01*
X44174Y8586D01*
X44148Y8648D01*
X44107Y8702D01*
X44053Y8743D01*
X43990Y8769D01*
X43973Y8772D01*
D02*
G37*
G36*
X43873D02*
X43856Y8769D01*
X43793Y8743D01*
X43740Y8702D01*
X43698Y8648D01*
X43672Y8586D01*
X43670Y8569D01*
X43873D01*
Y8772D01*
D02*
G37*
G36*
X39268Y8732D02*
Y8529D01*
X39472D01*
X39469Y8546D01*
X39443Y8609D01*
X39402Y8663D01*
X39348Y8704D01*
X39286Y8730D01*
X39268Y8732D01*
D02*
G37*
G36*
X39168D02*
X39151Y8730D01*
X39089Y8704D01*
X39035Y8663D01*
X38994Y8609D01*
X38968Y8546D01*
X38965Y8529D01*
X39168D01*
Y8732D01*
D02*
G37*
G36*
X44176Y8468D02*
X43973D01*
Y8265D01*
X43990Y8268D01*
X44053Y8294D01*
X44107Y8335D01*
X44148Y8389D01*
X44174Y8451D01*
X44176Y8468D01*
D02*
G37*
G36*
X43873D02*
X43670D01*
X43672Y8451D01*
X43698Y8389D01*
X43740Y8335D01*
X43793Y8294D01*
X43856Y8268D01*
X43873Y8265D01*
Y8468D01*
D02*
G37*
G36*
X39472Y8429D02*
X39268D01*
Y8226D01*
X39286Y8228D01*
X39348Y8254D01*
X39402Y8296D01*
X39443Y8349D01*
X39469Y8412D01*
X39472Y8429D01*
D02*
G37*
G36*
X39168D02*
X38965D01*
X38968Y8412D01*
X38994Y8349D01*
X39035Y8296D01*
X39089Y8254D01*
X39151Y8228D01*
X39168Y8226D01*
Y8429D01*
D02*
G37*
G36*
X2250Y8383D02*
Y7844D01*
X2539D01*
Y8050D01*
X2528Y8138D01*
X2494Y8220D01*
X2440Y8290D01*
X2370Y8344D01*
X2288Y8378D01*
X2250Y8383D01*
D02*
G37*
G36*
X2150D02*
X2112Y8378D01*
X2030Y8344D01*
X1960Y8290D01*
X1906Y8220D01*
X1872Y8138D01*
X1861Y8050D01*
Y7844D01*
X2150D01*
Y8383D01*
D02*
G37*
G36*
X14331Y8566D02*
X14215Y8554D01*
X14104Y8521D01*
X14001Y8466D01*
X13911Y8392D01*
X13837Y8302D01*
X13782Y8200D01*
X13749Y8088D01*
X13737Y7972D01*
X13749Y7857D01*
X13782Y7745D01*
X13837Y7643D01*
X13911Y7553D01*
X14001Y7479D01*
X14104Y7424D01*
X14215Y7390D01*
X14331Y7379D01*
X14446Y7390D01*
X14558Y7424D01*
X14660Y7479D01*
X14750Y7553D01*
X14824Y7643D01*
X14879Y7745D01*
X14913Y7857D01*
X14924Y7972D01*
X14913Y8088D01*
X14879Y8200D01*
X14824Y8302D01*
X14750Y8392D01*
X14660Y8466D01*
X14558Y8521D01*
X14446Y8554D01*
X14331Y8566D01*
D02*
G37*
G36*
X2539Y7744D02*
X2250D01*
Y7206D01*
X2288Y7211D01*
X2370Y7245D01*
X2440Y7299D01*
X2494Y7369D01*
X2528Y7451D01*
X2539Y7539D01*
Y7744D01*
D02*
G37*
G36*
X2150D02*
X1861D01*
Y7539D01*
X1872Y7451D01*
X1906Y7369D01*
X1960Y7299D01*
X2030Y7245D01*
X2112Y7211D01*
X2150Y7206D01*
Y7744D01*
D02*
G37*
G36*
X3184Y8487D02*
X3071Y8472D01*
X2966Y8429D01*
X2875Y8359D01*
X2806Y8269D01*
X2762Y8163D01*
X2747Y8050D01*
Y7539D01*
X2762Y7426D01*
X2806Y7320D01*
X2875Y7230D01*
X2966Y7160D01*
X3071Y7117D01*
X3184Y7102D01*
X3297Y7117D01*
X3403Y7160D01*
X3493Y7230D01*
X3563Y7320D01*
X3606Y7426D01*
X3621Y7539D01*
Y8050D01*
X3606Y8163D01*
X3563Y8269D01*
X3493Y8359D01*
X3403Y8429D01*
X3297Y8472D01*
X3184Y8487D01*
D02*
G37*
G36*
X43359Y7238D02*
X43243Y7226D01*
X43132Y7193D01*
X43029Y7138D01*
X42939Y7064D01*
X42866Y6974D01*
X42811Y6872D01*
X42777Y6760D01*
X42766Y6644D01*
X42777Y6529D01*
X42811Y6417D01*
X42866Y6315D01*
X42939Y6225D01*
X43029Y6151D01*
X43132Y6096D01*
X43243Y6062D01*
X43359Y6051D01*
X43475Y6062D01*
X43586Y6096D01*
X43689Y6151D01*
X43779Y6225D01*
X43852Y6315D01*
X43907Y6417D01*
X43941Y6529D01*
X43952Y6644D01*
X43941Y6760D01*
X43907Y6872D01*
X43852Y6974D01*
X43779Y7064D01*
X43689Y7138D01*
X43586Y7193D01*
X43475Y7226D01*
X43359Y7238D01*
D02*
G37*
G36*
X2205Y5403D02*
Y4864D01*
X2494D01*
Y5070D01*
X2483Y5158D01*
X2449Y5240D01*
X2395Y5310D01*
X2325Y5364D01*
X2243Y5398D01*
X2205Y5403D01*
D02*
G37*
G36*
X2105D02*
X2067Y5398D01*
X1986Y5364D01*
X1915Y5310D01*
X1861Y5240D01*
X1828Y5158D01*
X1816Y5070D01*
Y4864D01*
X2105D01*
Y5403D01*
D02*
G37*
G36*
X43359Y5466D02*
X43243Y5455D01*
X43132Y5421D01*
X43029Y5366D01*
X42939Y5292D01*
X42866Y5203D01*
X42811Y5100D01*
X42777Y4989D01*
X42766Y4873D01*
X42777Y4757D01*
X42811Y4646D01*
X42866Y4543D01*
X42939Y4453D01*
X43029Y4379D01*
X43132Y4325D01*
X43243Y4291D01*
X43359Y4279D01*
X43475Y4291D01*
X43586Y4325D01*
X43689Y4379D01*
X43779Y4453D01*
X43852Y4543D01*
X43907Y4646D01*
X43941Y4757D01*
X43952Y4873D01*
X43941Y4989D01*
X43907Y5100D01*
X43852Y5203D01*
X43779Y5292D01*
X43689Y5366D01*
X43586Y5421D01*
X43475Y5455D01*
X43359Y5466D01*
D02*
G37*
G36*
X40800D02*
X40684Y5455D01*
X40573Y5421D01*
X40470Y5366D01*
X40380Y5292D01*
X40307Y5203D01*
X40252Y5100D01*
X40218Y4989D01*
X40207Y4873D01*
X40218Y4757D01*
X40252Y4646D01*
X40307Y4543D01*
X40380Y4453D01*
X40470Y4379D01*
X40573Y4325D01*
X40684Y4291D01*
X40800Y4279D01*
X40916Y4291D01*
X41027Y4325D01*
X41130Y4379D01*
X41220Y4453D01*
X41293Y4543D01*
X41348Y4646D01*
X41382Y4757D01*
X41393Y4873D01*
X41382Y4989D01*
X41348Y5100D01*
X41293Y5203D01*
X41220Y5292D01*
X41130Y5366D01*
X41027Y5421D01*
X40916Y5455D01*
X40800Y5466D01*
D02*
G37*
G36*
X2494Y4764D02*
X2205D01*
Y4226D01*
X2243Y4231D01*
X2325Y4265D01*
X2395Y4318D01*
X2449Y4389D01*
X2483Y4471D01*
X2494Y4558D01*
Y4764D01*
D02*
G37*
G36*
X2105D02*
X1816D01*
Y4558D01*
X1828Y4471D01*
X1861Y4389D01*
X1915Y4318D01*
X1986Y4265D01*
X2067Y4231D01*
X2105Y4226D01*
Y4764D01*
D02*
G37*
G36*
X3139Y5507D02*
X3026Y5492D01*
X2921Y5448D01*
X2831Y5379D01*
X2761Y5288D01*
X2717Y5183D01*
X2703Y5070D01*
Y4558D01*
X2717Y4445D01*
X2761Y4340D01*
X2831Y4249D01*
X2921Y4180D01*
X3026Y4136D01*
X3139Y4121D01*
X3252Y4136D01*
X3358Y4180D01*
X3448Y4249D01*
X3518Y4340D01*
X3561Y4445D01*
X3576Y4558D01*
Y5070D01*
X3561Y5183D01*
X3518Y5288D01*
X3448Y5379D01*
X3358Y5448D01*
X3252Y5492D01*
X3139Y5507D01*
D02*
G37*
G36*
X11933Y4178D02*
Y3831D01*
X12280D01*
X12272Y3886D01*
X12232Y3983D01*
X12168Y4067D01*
X12084Y4131D01*
X11987Y4171D01*
X11933Y4178D01*
D02*
G37*
G36*
X11833D02*
X11778Y4171D01*
X11681Y4131D01*
X11597Y4067D01*
X11533Y3983D01*
X11493Y3886D01*
X11486Y3831D01*
X11833D01*
Y4178D01*
D02*
G37*
G36*
X22770Y12719D02*
X22657Y12704D01*
X22551Y12661D01*
X22461Y12591D01*
X22391Y12501D01*
X22348Y12395D01*
X22333Y12282D01*
Y11770D01*
X22348Y11657D01*
X22391Y11552D01*
X22461Y11462D01*
X22490Y11440D01*
Y7067D01*
X22251Y6828D01*
X20807D01*
X20730Y6818D01*
X20658Y6788D01*
X20596Y6741D01*
X20596Y6741D01*
X20331Y6475D01*
X20283Y6413D01*
X20254Y6342D01*
X20244Y6265D01*
Y3509D01*
X20223Y3493D01*
X20197Y3459D01*
X20147D01*
X20132Y3479D01*
X20111Y3495D01*
Y6614D01*
X20675Y7177D01*
X21476D01*
X21553Y7188D01*
X21625Y7217D01*
X21687Y7265D01*
X21982Y7560D01*
X22030Y7622D01*
X22059Y7693D01*
X22064Y7732D01*
X22069Y7770D01*
X22069Y7770D01*
Y11455D01*
X22079Y11462D01*
X22148Y11552D01*
X22192Y11657D01*
X22206Y11770D01*
Y12282D01*
X22192Y12395D01*
X22148Y12501D01*
X22079Y12591D01*
X21988Y12661D01*
X21883Y12704D01*
X21770Y12719D01*
X21657Y12704D01*
X21551Y12661D01*
X21461Y12591D01*
X21391Y12501D01*
X21348Y12395D01*
X21333Y12282D01*
Y11770D01*
X21348Y11657D01*
X21391Y11552D01*
X21461Y11462D01*
X21474Y11452D01*
Y7894D01*
X21353Y7773D01*
X20551D01*
X20551Y7773D01*
X20513Y7768D01*
X20474Y7763D01*
X20402Y7733D01*
X20341Y7686D01*
X19602Y6948D01*
X19555Y6886D01*
X19525Y6814D01*
X19515Y6737D01*
Y3495D01*
X19494Y3479D01*
X19423Y3386D01*
X19378Y3277D01*
X19362Y3161D01*
X19378Y3044D01*
X19423Y2935D01*
X19494Y2842D01*
X19588Y2770D01*
X19696Y2725D01*
X19813Y2710D01*
X19930Y2725D01*
X20038Y2770D01*
X20132Y2842D01*
X20157Y2875D01*
X20207D01*
X20223Y2855D01*
X20316Y2784D01*
X20425Y2739D01*
X20541Y2723D01*
X20658Y2739D01*
X20767Y2784D01*
X20860Y2855D01*
X20932Y2949D01*
X20977Y3057D01*
X20992Y3174D01*
X20977Y3291D01*
X20932Y3399D01*
X20860Y3493D01*
X20839Y3509D01*
Y6141D01*
X20930Y6232D01*
X22374D01*
X22451Y6243D01*
X22523Y6272D01*
X22585Y6320D01*
X22998Y6733D01*
X23045Y6795D01*
X23075Y6867D01*
X23085Y6944D01*
Y11470D01*
X23148Y11552D01*
X23192Y11657D01*
X23206Y11770D01*
Y12282D01*
X23192Y12395D01*
X23148Y12501D01*
X23079Y12591D01*
X22988Y12661D01*
X22883Y12704D01*
X22770Y12719D01*
D02*
G37*
G36*
X12280Y3731D02*
X11933D01*
Y3385D01*
X11987Y3392D01*
X12084Y3432D01*
X12168Y3496D01*
X12232Y3580D01*
X12272Y3677D01*
X12280Y3731D01*
D02*
G37*
G36*
X11833D02*
X11486D01*
X11493Y3677D01*
X11533Y3580D01*
X11597Y3496D01*
X11681Y3432D01*
X11778Y3392D01*
X11833Y3385D01*
Y3731D01*
D02*
G37*
G36*
X33722Y3676D02*
X33615Y3662D01*
X33514Y3620D01*
X33428Y3554D01*
X33361Y3468D01*
X33320Y3367D01*
X33306Y3265D01*
X33222Y3276D01*
X33115Y3262D01*
X33014Y3220D01*
X32928Y3154D01*
X32861Y3068D01*
X32820Y2967D01*
X32805Y2859D01*
Y2662D01*
X32820Y2554D01*
X32861Y2454D01*
X32928Y2367D01*
X33014Y2301D01*
X33115Y2259D01*
X33222Y2245D01*
X33330Y2259D01*
X33431Y2301D01*
X33517Y2367D01*
X33584Y2454D01*
X33625Y2554D01*
X33639Y2656D01*
X33722Y2645D01*
X33830Y2659D01*
X33858Y2671D01*
X33907Y2637D01*
X33914Y2580D01*
X33946Y2503D01*
X33997Y2436D01*
X34063Y2386D01*
X34140Y2354D01*
X34172Y2350D01*
Y2761D01*
Y3189D01*
X34139Y3218D01*
Y3259D01*
X34125Y3367D01*
X34084Y3468D01*
X34017Y3554D01*
X33931Y3620D01*
X33830Y3662D01*
X33722Y3676D01*
D02*
G37*
G36*
X29645Y3510D02*
X29359D01*
Y3224D01*
X29645D01*
Y3510D01*
D02*
G37*
G36*
X25946D02*
X25660D01*
Y3224D01*
X25946D01*
Y3510D01*
D02*
G37*
G36*
X21925D02*
X21639D01*
Y3224D01*
X21925D01*
Y3510D01*
D02*
G37*
G36*
X18017D02*
X17731D01*
Y3224D01*
X18017D01*
Y3510D01*
D02*
G37*
G36*
X29259D02*
X28973D01*
Y3224D01*
X29259D01*
Y3510D01*
D02*
G37*
G36*
X17631D02*
X17345D01*
Y3224D01*
X17631D01*
Y3510D01*
D02*
G37*
G36*
X25560D02*
X25274D01*
Y3224D01*
X25560D01*
Y3510D01*
D02*
G37*
G36*
X21539D02*
X21252D01*
Y3224D01*
X21539D01*
Y3510D01*
D02*
G37*
G36*
X39883Y3102D02*
Y2899D01*
X40086D01*
X40084Y2916D01*
X40058Y2979D01*
X40016Y3033D01*
X39963Y3074D01*
X39900Y3100D01*
X39883Y3102D01*
D02*
G37*
G36*
X39783D02*
X39765Y3100D01*
X39703Y3074D01*
X39649Y3033D01*
X39608Y2979D01*
X39582Y2916D01*
X39580Y2899D01*
X39783D01*
Y3102D01*
D02*
G37*
G36*
X36513D02*
Y2899D01*
X36716D01*
X36713Y2916D01*
X36687Y2979D01*
X36646Y3033D01*
X36592Y3074D01*
X36530Y3100D01*
X36513Y3102D01*
D02*
G37*
G36*
X36413D02*
X36395Y3100D01*
X36333Y3074D01*
X36279Y3033D01*
X36238Y2979D01*
X36212Y2916D01*
X36209Y2899D01*
X36413D01*
Y3102D01*
D02*
G37*
G36*
X5617Y3092D02*
Y2889D01*
X5820D01*
X5818Y2907D01*
X5792Y2969D01*
X5751Y3023D01*
X5697Y3064D01*
X5634Y3090D01*
X5617Y3092D01*
D02*
G37*
G36*
X5517D02*
X5500Y3090D01*
X5437Y3064D01*
X5383Y3023D01*
X5342Y2969D01*
X5316Y2907D01*
X5314Y2889D01*
X5517D01*
Y3092D01*
D02*
G37*
G36*
X29645Y3124D02*
X29359D01*
Y2838D01*
X29645D01*
Y3124D01*
D02*
G37*
G36*
X29259D02*
X28973D01*
Y2838D01*
X29259D01*
Y3124D01*
D02*
G37*
G36*
X25946D02*
X25660D01*
Y2838D01*
X25946D01*
Y3124D01*
D02*
G37*
G36*
X25560D02*
X25274D01*
Y2838D01*
X25560D01*
Y3124D01*
D02*
G37*
G36*
X21925D02*
X21639D01*
Y2838D01*
X21925D01*
Y3124D01*
D02*
G37*
G36*
X21539D02*
X21252D01*
Y2838D01*
X21539D01*
Y3124D01*
D02*
G37*
G36*
X18017D02*
X17731D01*
Y2838D01*
X18017D01*
Y3124D01*
D02*
G37*
G36*
X17631D02*
X17345D01*
Y2838D01*
X17631D01*
Y3124D01*
D02*
G37*
G36*
X30309Y3611D02*
X30196Y3596D01*
X30091Y3552D01*
X30000Y3483D01*
X29931Y3392D01*
X29887Y3287D01*
X29872Y3174D01*
X29887Y3061D01*
X29931Y2956D01*
X30000Y2865D01*
X30091Y2796D01*
X30196Y2752D01*
X30309Y2737D01*
X30422Y2752D01*
X30527Y2796D01*
X30618Y2865D01*
X30687Y2956D01*
X30731Y3061D01*
X30746Y3174D01*
X30731Y3287D01*
X30687Y3392D01*
X30618Y3483D01*
X30527Y3552D01*
X30422Y3596D01*
X30309Y3611D01*
D02*
G37*
G36*
X26610D02*
X26497Y3596D01*
X26392Y3552D01*
X26301Y3483D01*
X26232Y3392D01*
X26188Y3287D01*
X26173Y3174D01*
X26188Y3061D01*
X26232Y2956D01*
X26301Y2865D01*
X26392Y2796D01*
X26497Y2752D01*
X26610Y2737D01*
X26723Y2752D01*
X26829Y2796D01*
X26919Y2865D01*
X26989Y2956D01*
X27032Y3061D01*
X27047Y3174D01*
X27032Y3287D01*
X26989Y3392D01*
X26919Y3483D01*
X26829Y3552D01*
X26723Y3596D01*
X26610Y3611D01*
D02*
G37*
G36*
X22589D02*
X22476Y3596D01*
X22370Y3552D01*
X22280Y3483D01*
X22210Y3392D01*
X22167Y3287D01*
X22152Y3174D01*
X22167Y3061D01*
X22210Y2956D01*
X22280Y2865D01*
X22370Y2796D01*
X22476Y2752D01*
X22589Y2737D01*
X22702Y2752D01*
X22807Y2796D01*
X22897Y2865D01*
X22967Y2956D01*
X23010Y3061D01*
X23025Y3174D01*
X23010Y3287D01*
X22967Y3392D01*
X22897Y3483D01*
X22807Y3552D01*
X22702Y3596D01*
X22589Y3611D01*
D02*
G37*
G36*
X18681D02*
X18568Y3596D01*
X18463Y3552D01*
X18372Y3483D01*
X18303Y3392D01*
X18259Y3287D01*
X18244Y3174D01*
X18259Y3061D01*
X18303Y2956D01*
X18372Y2865D01*
X18463Y2796D01*
X18568Y2752D01*
X18681Y2737D01*
X18794Y2752D01*
X18900Y2796D01*
X18990Y2865D01*
X19059Y2956D01*
X19103Y3061D01*
X19118Y3174D01*
X19103Y3287D01*
X19059Y3392D01*
X18990Y3483D01*
X18900Y3552D01*
X18794Y3596D01*
X18681Y3611D01*
D02*
G37*
G36*
X23770Y12719D02*
X23657Y12704D01*
X23551Y12661D01*
X23461Y12591D01*
X23391Y12501D01*
X23348Y12395D01*
X23333Y12282D01*
Y11770D01*
X23348Y11657D01*
X23391Y11552D01*
X23461Y11462D01*
X23480Y11447D01*
Y3509D01*
X23459Y3493D01*
X23387Y3399D01*
X23342Y3291D01*
X23327Y3174D01*
X23342Y3057D01*
X23387Y2949D01*
X23459Y2855D01*
X23552Y2784D01*
X23661Y2739D01*
X23778Y2723D01*
X23894Y2739D01*
X24003Y2784D01*
X24096Y2855D01*
X24168Y2949D01*
X24213Y3057D01*
X24228Y3174D01*
X24213Y3291D01*
X24168Y3399D01*
X24096Y3493D01*
X24075Y3509D01*
Y11459D01*
X24079Y11462D01*
X24148Y11552D01*
X24192Y11657D01*
X24206Y11770D01*
Y12282D01*
X24192Y12395D01*
X24148Y12501D01*
X24079Y12591D01*
X23988Y12661D01*
X23883Y12704D01*
X23770Y12719D01*
D02*
G37*
G36*
X34722Y3676D02*
X34615Y3662D01*
X34514Y3620D01*
X34428Y3554D01*
X34361Y3468D01*
X34320Y3367D01*
X34305Y3259D01*
Y3218D01*
X34272Y3189D01*
Y2761D01*
Y2350D01*
X34305Y2354D01*
X34382Y2386D01*
X34448Y2436D01*
X34499Y2503D01*
X34531Y2580D01*
X34538Y2637D01*
X34587Y2671D01*
X34615Y2659D01*
X34722Y2645D01*
X34830Y2659D01*
X34931Y2701D01*
X35017Y2767D01*
X35084Y2854D01*
X35125Y2954D01*
X35139Y3062D01*
Y3259D01*
X35125Y3367D01*
X35084Y3468D01*
X35017Y3554D01*
X34931Y3620D01*
X34830Y3662D01*
X34722Y3676D01*
D02*
G37*
G36*
X40086Y2799D02*
X39883D01*
Y2596D01*
X39900Y2598D01*
X39963Y2624D01*
X40016Y2666D01*
X40058Y2719D01*
X40084Y2782D01*
X40086Y2799D01*
D02*
G37*
G36*
X39783D02*
X39580D01*
X39582Y2782D01*
X39608Y2719D01*
X39649Y2666D01*
X39703Y2624D01*
X39765Y2598D01*
X39783Y2596D01*
Y2799D01*
D02*
G37*
G36*
X36716D02*
X36513D01*
Y2596D01*
X36530Y2598D01*
X36592Y2624D01*
X36646Y2666D01*
X36687Y2719D01*
X36713Y2782D01*
X36716Y2799D01*
D02*
G37*
G36*
X36413D02*
X36209D01*
X36212Y2782D01*
X36238Y2719D01*
X36279Y2666D01*
X36333Y2624D01*
X36395Y2598D01*
X36413Y2596D01*
Y2799D01*
D02*
G37*
G36*
X5820Y2789D02*
X5617D01*
Y2586D01*
X5634Y2589D01*
X5697Y2614D01*
X5751Y2656D01*
X5792Y2710D01*
X5818Y2772D01*
X5820Y2789D01*
D02*
G37*
G36*
X5517D02*
X5314D01*
X5316Y2772D01*
X5342Y2710D01*
X5383Y2656D01*
X5437Y2614D01*
X5500Y2589D01*
X5517Y2586D01*
Y2789D01*
D02*
G37*
G36*
X43898Y2406D02*
X43736Y2390D01*
X43580Y2342D01*
X43436Y2266D01*
X43310Y2162D01*
X43207Y2036D01*
X43130Y1893D01*
X43083Y1737D01*
X43067Y1575D01*
X43083Y1413D01*
X43130Y1257D01*
X43207Y1113D01*
X43310Y987D01*
X43436Y884D01*
X43580Y807D01*
X43736Y760D01*
X43898Y744D01*
X44060Y760D01*
X44216Y807D01*
X44359Y884D01*
X44485Y987D01*
X44588Y1113D01*
X44665Y1257D01*
X44712Y1413D01*
X44728Y1575D01*
X44712Y1737D01*
X44665Y1893D01*
X44588Y2036D01*
X44485Y2162D01*
X44359Y2266D01*
X44216Y2342D01*
X44060Y2390D01*
X43898Y2406D01*
D02*
G37*
G36*
X1575D02*
X1413Y2390D01*
X1257Y2342D01*
X1113Y2266D01*
X987Y2162D01*
X884Y2036D01*
X807Y1893D01*
X760Y1737D01*
X744Y1575D01*
X760Y1413D01*
X807Y1257D01*
X884Y1113D01*
X987Y987D01*
X1113Y884D01*
X1257Y807D01*
X1413Y760D01*
X1575Y744D01*
X1737Y760D01*
X1893Y807D01*
X2036Y884D01*
X2162Y987D01*
X2266Y1113D01*
X2342Y1257D01*
X2390Y1413D01*
X2406Y1575D01*
X2390Y1737D01*
X2342Y1893D01*
X2266Y2036D01*
X2162Y2162D01*
X2036Y2266D01*
X1893Y2342D01*
X1737Y2390D01*
X1575Y2406D01*
D02*
G37*
%LPD*%
G36*
X16813Y31910D02*
X16858Y31803D01*
X16937Y31700D01*
X16990Y31659D01*
Y28337D01*
X17000Y28260D01*
X17030Y28188D01*
X17077Y28126D01*
X17742Y27461D01*
X17804Y27414D01*
X17876Y27384D01*
X17953Y27374D01*
X17953Y27374D01*
X32672D01*
X33462Y26584D01*
Y24985D01*
X33441Y24969D01*
X33370Y24876D01*
X33324Y24767D01*
X33309Y24650D01*
X33324Y24534D01*
X33370Y24425D01*
X33402Y24383D01*
X33380Y24338D01*
X31211D01*
X31134Y24328D01*
X31062Y24298D01*
X31000Y24251D01*
X31000Y24251D01*
X30528Y23778D01*
X30480Y23717D01*
X30451Y23645D01*
X30440Y23568D01*
Y23135D01*
X30419Y23119D01*
X30348Y23025D01*
X30303Y22917D01*
X30287Y22800D01*
X30303Y22683D01*
X30339Y22597D01*
X30311Y22547D01*
X25039D01*
X25039Y22547D01*
X24962Y22536D01*
X24890Y22507D01*
X24829Y22459D01*
X24829Y22459D01*
X24583Y22213D01*
X24535Y22152D01*
X24506Y22080D01*
X24495Y22003D01*
Y21914D01*
X24475Y21898D01*
X24403Y21805D01*
X24358Y21696D01*
X24343Y21580D01*
X24358Y21463D01*
X24391Y21382D01*
X24360Y21332D01*
X23710D01*
X23319Y21723D01*
Y26245D01*
X23309Y26322D01*
X23280Y26394D01*
X23232Y26455D01*
X22907Y26780D01*
X22846Y26828D01*
X22774Y26857D01*
X22697Y26868D01*
X15714D01*
X15426Y27156D01*
Y29857D01*
X15426Y29857D01*
X15416Y29934D01*
X15386Y30006D01*
X15339Y30068D01*
X15339Y30068D01*
X14984Y30422D01*
X14923Y30469D01*
X14851Y30499D01*
X14774Y30509D01*
X12751D01*
X12636Y30625D01*
Y31659D01*
X12689Y31700D01*
X12768Y31803D01*
X12788Y31851D01*
X12838D01*
X12858Y31803D01*
X12937Y31700D01*
X13040Y31621D01*
X13159Y31571D01*
X13288Y31554D01*
X13416Y31571D01*
X13536Y31621D01*
X13639Y31700D01*
X13718Y31803D01*
X13762Y31910D01*
X13762Y31910D01*
X13813D01*
X13813Y31910D01*
X13858Y31803D01*
X13937Y31700D01*
X14040Y31621D01*
X14159Y31571D01*
X14288Y31554D01*
X14416Y31571D01*
X14536Y31621D01*
X14639Y31700D01*
X14718Y31803D01*
X14762Y31910D01*
X14762Y31910D01*
X14813D01*
X14813Y31910D01*
X14858Y31803D01*
X14937Y31700D01*
X15040Y31621D01*
X15159Y31571D01*
X15288Y31554D01*
X15416Y31571D01*
X15536Y31621D01*
X15639Y31700D01*
X15718Y31803D01*
X15762Y31910D01*
X15762Y31910D01*
X15813D01*
X15813Y31910D01*
X15858Y31803D01*
X15937Y31700D01*
X16040Y31621D01*
X16159Y31571D01*
X16288Y31554D01*
X16416Y31571D01*
X16536Y31621D01*
X16639Y31700D01*
X16718Y31803D01*
X16762Y31910D01*
X16762Y31910D01*
X16813D01*
X16813Y31910D01*
D02*
G37*
%LPC*%
G36*
X29957Y25730D02*
Y25527D01*
X30161D01*
X30158Y25544D01*
X30132Y25607D01*
X30091Y25661D01*
X30037Y25702D01*
X29975Y25728D01*
X29957Y25730D01*
D02*
G37*
G36*
X29857D02*
X29840Y25728D01*
X29778Y25702D01*
X29724Y25661D01*
X29683Y25607D01*
X29657Y25544D01*
X29654Y25527D01*
X29857D01*
Y25730D01*
D02*
G37*
G36*
X24745Y25692D02*
Y25488D01*
X24948D01*
X24946Y25506D01*
X24920Y25568D01*
X24879Y25622D01*
X24825Y25663D01*
X24762Y25689D01*
X24745Y25692D01*
D02*
G37*
G36*
X24645D02*
X24628Y25689D01*
X24565Y25663D01*
X24511Y25622D01*
X24470Y25568D01*
X24444Y25506D01*
X24442Y25488D01*
X24645D01*
Y25692D01*
D02*
G37*
G36*
X30161Y25427D02*
X29957D01*
Y25224D01*
X29975Y25226D01*
X30037Y25252D01*
X30091Y25294D01*
X30132Y25347D01*
X30158Y25410D01*
X30161Y25427D01*
D02*
G37*
G36*
X29857D02*
X29654D01*
X29657Y25410D01*
X29683Y25347D01*
X29724Y25294D01*
X29778Y25252D01*
X29840Y25226D01*
X29857Y25224D01*
Y25427D01*
D02*
G37*
G36*
X24948Y25388D02*
X24745D01*
Y25185D01*
X24762Y25188D01*
X24825Y25213D01*
X24879Y25255D01*
X24920Y25309D01*
X24946Y25371D01*
X24948Y25388D01*
D02*
G37*
G36*
X24645D02*
X24442D01*
X24444Y25371D01*
X24470Y25309D01*
X24511Y25255D01*
X24565Y25213D01*
X24628Y25188D01*
X24645Y25185D01*
Y25388D01*
D02*
G37*
%LPD*%
D47*
X24764Y7992D02*
Y12044D01*
X4169Y5136D02*
Y11968D01*
X25104Y7652D02*
X27461D01*
X24764Y7992D02*
X25104Y7652D01*
X7411Y16339D02*
Y22239D01*
X6806Y22844D02*
X7411Y22239D01*
X3100Y22844D02*
X6806D01*
X6967Y15894D02*
X7411Y16339D01*
X5612Y15894D02*
X6967D01*
X1142Y13204D02*
Y18159D01*
Y13204D02*
X1791Y12554D01*
X42116Y1604D02*
Y6099D01*
X41467Y955D02*
X42116Y1604D01*
X29040Y955D02*
X41467D01*
X5030D02*
X26944D01*
X4124Y1861D02*
X5030Y955D01*
X4124Y1861D02*
Y4814D01*
X26944Y955D02*
X27992Y2003D01*
X29040Y955D01*
X41571Y6644D02*
X42116Y6099D01*
X27992Y2003D02*
Y7121D01*
X27461Y7652D02*
X27992Y7121D01*
X3582Y12554D02*
X4169Y11968D01*
X1791Y12554D02*
X3582D01*
X10394Y25772D02*
X10398Y25768D01*
X6866Y4798D02*
X6883Y4781D01*
X4140Y4798D02*
X6866D01*
X4124Y4814D02*
X4140Y4798D01*
X4124Y4814D02*
Y5091D01*
X4169Y5136D01*
X41584Y12328D02*
X42116Y11796D01*
Y7190D02*
Y11796D01*
X41571Y6644D02*
X42116Y7190D01*
X41606Y18136D02*
X42116Y17627D01*
Y12877D02*
Y17627D01*
X41567Y12328D02*
X42116Y12877D01*
X41604Y23469D02*
X42116Y22957D01*
Y18646D02*
Y22957D01*
X41606Y18136D02*
X42116Y18646D01*
X40800Y6644D02*
X41571D01*
X41567Y12328D02*
X41584D01*
X40830D02*
X41567D01*
X40916Y18136D02*
X41606D01*
X40841Y18061D02*
X40916Y18136D01*
Y23469D02*
X41604D01*
X40841Y23544D02*
X40916Y23469D01*
X40542Y27169D02*
X40841Y26870D01*
Y23544D02*
Y26870D01*
X39872Y27169D02*
X40542D01*
X39812Y27230D02*
X39872Y27169D01*
D48*
X38839Y27092D02*
X38976Y27230D01*
X32096Y23474D02*
X38529D01*
X31811Y23189D02*
X32096Y23474D01*
X31811Y22800D02*
Y23189D01*
X38529Y23474D02*
X38839Y23784D01*
X8883Y4781D02*
Y14606D01*
X9469Y15192D01*
X14990Y10285D02*
X15654D01*
X14770Y10506D02*
X14990Y10285D01*
X14770Y10506D02*
Y12026D01*
X16206Y7967D02*
X16860D01*
X15988Y8185D02*
X16206Y7967D01*
X15988Y8185D02*
Y9951D01*
X15654Y10285D02*
X15988Y9951D01*
X23778Y3174D02*
Y12044D01*
X20288Y30750D02*
X20758Y30280D01*
X24301D01*
X35039Y22249D02*
X36299Y20989D01*
Y12830D02*
Y20989D01*
X23587Y21034D02*
X34945D01*
X23022Y21599D02*
X23587Y21034D01*
X23022Y21599D02*
Y26245D01*
X12628Y30211D02*
X14774D01*
X12338Y30502D02*
X12628Y30211D01*
X12338Y30502D02*
Y32149D01*
X14774Y30211D02*
X15128Y29857D01*
Y27032D02*
Y29857D01*
Y27032D02*
X15591Y26570D01*
X22697D01*
X23022Y26245D01*
X34945Y21034D02*
X35502Y20477D01*
Y12859D02*
Y20477D01*
X32756Y12040D02*
Y15103D01*
Y12040D02*
X32770Y12026D01*
X32244Y15615D02*
X32756Y15103D01*
X17677Y15615D02*
X32244D01*
X13199Y21383D02*
X13209Y21373D01*
X13199Y21383D02*
Y27997D01*
X11988Y29207D02*
X13199Y27997D01*
X11014Y29207D02*
X11988D01*
X10338Y29883D02*
X11014Y29207D01*
X10338Y29883D02*
Y32149D01*
X34931Y11589D02*
X36526D01*
X37037Y11078D01*
X17717Y17974D02*
X17770Y18026D01*
X34606Y11914D02*
X34931Y11589D01*
X34606Y11914D02*
Y15585D01*
X37037Y7780D02*
Y11078D01*
X36535Y7278D02*
X37037Y7780D01*
X30256Y7278D02*
X36535D01*
X17770Y16920D02*
Y18026D01*
Y16920D02*
X18465Y16225D01*
X33967D01*
X34606Y15585D01*
X25039Y22249D02*
X35039D01*
X24793Y22003D02*
X25039Y22249D01*
X24793Y21580D02*
Y22003D01*
X30738Y23568D02*
X31211Y24040D01*
X30738Y22800D02*
Y23568D01*
X31211Y24040D02*
X37146D01*
X37667Y24562D01*
X11585Y19581D02*
X28494D01*
X11112Y19109D02*
X11585Y19581D01*
X11112Y17280D02*
Y19109D01*
Y17280D02*
X11132Y17261D01*
X28494Y19581D02*
X28770Y19306D01*
Y18026D02*
Y19306D01*
X29770Y18026D02*
X29783Y18040D01*
Y19660D01*
X29370Y20074D02*
X29783Y19660D01*
X10994Y20074D02*
X29370D01*
X10132Y19211D02*
X10994Y20074D01*
X10132Y17261D02*
Y19211D01*
X11116Y17244D02*
X11132Y17261D01*
X37667Y27692D02*
X38046Y28070D01*
X38828D01*
X37667Y24562D02*
Y27692D01*
X32795Y27672D02*
X33760Y26707D01*
Y24650D02*
Y26707D01*
X38839Y23784D02*
Y27092D01*
X17953Y27672D02*
X32795D01*
X19577Y29365D02*
X26713D01*
X19238Y29704D02*
X19577Y29365D01*
X19238Y29704D02*
Y32149D01*
X20288Y30750D02*
Y32149D01*
X18937Y28509D02*
X30433D01*
X18288Y29158D02*
X18937Y28509D01*
X18288Y29158D02*
Y32149D01*
X17288Y28337D02*
X17953Y27672D01*
X17288Y28337D02*
Y32149D01*
X26770Y10170D02*
Y12026D01*
X26384Y9785D02*
X26770Y10170D01*
X25851Y9785D02*
X26384D01*
X21772Y7770D02*
Y12044D01*
X19813Y3161D02*
Y6737D01*
X20551Y7475D01*
X20541Y3174D02*
Y6265D01*
X31083Y10950D02*
X34744D01*
X30770Y11263D02*
X31083Y10950D01*
X30770Y11263D02*
Y12026D01*
Y12044D01*
X29783Y11107D02*
Y13400D01*
X30354Y10536D02*
X32411D01*
X29783Y11107D02*
X30354Y10536D01*
X29311Y13873D02*
X29783Y13400D01*
X28770Y12026D02*
Y12830D01*
X28327Y13272D02*
X28770Y12830D01*
X12667Y13272D02*
X28327D01*
X22787Y6944D02*
Y12064D01*
X22374Y6530D02*
X22787Y6944D01*
X20807Y6530D02*
X22374D01*
X20541Y6265D02*
X20807Y6530D01*
X20551Y7475D02*
X21476D01*
X21772Y7770D01*
X27782Y9785D02*
Y12014D01*
X27770Y12026D02*
X27782Y12014D01*
X16762Y14946D02*
Y18044D01*
X16388Y14572D02*
X16762Y14946D01*
X15768Y15615D02*
Y18044D01*
X15344Y15192D02*
X15768Y15615D01*
X14770Y18026D02*
Y18044D01*
Y16635D02*
Y18026D01*
X14213Y16078D02*
X14770Y16635D01*
X8415Y16078D02*
X14213D01*
X11447Y13873D02*
X29311D01*
X11883Y12488D02*
X12667Y13272D01*
X10883Y13309D02*
X11447Y13873D01*
X11883Y4781D02*
Y12488D01*
X10883Y4781D02*
Y13309D01*
X10482Y14572D02*
X16388D01*
X9883Y13972D02*
X10482Y14572D01*
X9883Y4781D02*
Y13972D01*
X9469Y15192D02*
X15344D01*
X7883Y15545D02*
X8415Y16078D01*
X7883Y4781D02*
Y15545D01*
X34744Y10950D02*
X35030Y10664D01*
X32411Y10536D02*
X32648Y10300D01*
Y9719D02*
Y10300D01*
Y9719D02*
X32677Y9690D01*
X35030Y9650D02*
Y10664D01*
X9394Y25788D02*
X9400Y25782D01*
X9394Y25788D02*
Y32143D01*
X9388Y32149D02*
X9394Y32143D01*
D49*
X18681Y3174D02*
D03*
X22589D02*
D03*
X26610D02*
D03*
X30309D02*
D03*
X2275Y28294D02*
D03*
D50*
X17681Y3174D02*
D03*
X21589D02*
D03*
X25610D02*
D03*
X29309D02*
D03*
D51*
X2275Y27294D02*
D03*
D52*
X32677Y9690D02*
D03*
X33677D02*
D03*
X36030Y9650D02*
D03*
X35030D02*
D03*
X12132Y17261D02*
D03*
X11132D02*
D03*
X10132D02*
D03*
X6883Y3781D02*
D03*
X7883D02*
D03*
X9883D02*
D03*
X8883D02*
D03*
X10883D02*
D03*
X11883D02*
D03*
Y4781D02*
D03*
X10883D02*
D03*
X8883D02*
D03*
X9883D02*
D03*
X7883D02*
D03*
X6883D02*
D03*
X1132Y22057D02*
D03*
Y22844D02*
D03*
Y23632D02*
D03*
X3100D02*
D03*
Y22844D02*
D03*
Y22057D02*
D03*
D53*
X34700Y19944D02*
D03*
Y32149D02*
D03*
X5172Y19944D02*
D03*
Y32149D02*
D03*
D54*
X22238D02*
D03*
X21238D02*
D03*
X20288D02*
D03*
X19238D02*
D03*
X18288D02*
D03*
X17288D02*
D03*
X16288D02*
D03*
X15288D02*
D03*
X14288D02*
D03*
X13288D02*
D03*
X12338D02*
D03*
X11338D02*
D03*
X10338D02*
D03*
X9388D02*
D03*
X8338D02*
D03*
X7338D02*
D03*
D55*
X4124Y4814D02*
D03*
X3139D02*
D03*
X2155D02*
D03*
X4169Y7794D02*
D03*
X3184D02*
D03*
X2200D02*
D03*
X4169Y10844D02*
D03*
X3184D02*
D03*
X2200D02*
D03*
X8415Y25782D02*
D03*
X9400D02*
D03*
X10384D02*
D03*
D56*
X34722Y3161D02*
D03*
X34222Y2761D02*
D03*
X33722Y3161D02*
D03*
X33222Y2761D02*
D03*
D57*
X27782Y9785D02*
D03*
X25851D02*
D03*
D58*
X18543Y23253D02*
D03*
X15543D02*
D03*
D59*
X43400Y23544D02*
D03*
X40841D02*
D03*
Y21773D02*
D03*
X43400D02*
D03*
Y18061D02*
D03*
X40841D02*
D03*
Y16289D02*
D03*
X43400D02*
D03*
X43389Y12328D02*
D03*
X40830D02*
D03*
Y10556D02*
D03*
X43389D02*
D03*
X43359Y6644D02*
D03*
X40800D02*
D03*
Y4873D02*
D03*
X43359D02*
D03*
X14331Y7972D02*
D03*
X16890D02*
D03*
Y9744D02*
D03*
X14331D02*
D03*
D60*
X14770Y12026D02*
D03*
D61*
X15770D02*
D03*
X16770D02*
D03*
X17770D02*
D03*
X18770D02*
D03*
X19770D02*
D03*
X20770D02*
D03*
X21770D02*
D03*
X22770D02*
D03*
X23770D02*
D03*
X24770D02*
D03*
X25770D02*
D03*
X26770D02*
D03*
X27770D02*
D03*
X28770D02*
D03*
X29770D02*
D03*
X30770D02*
D03*
X31770D02*
D03*
X32770D02*
D03*
X33770D02*
D03*
X14770Y18026D02*
D03*
X15770D02*
D03*
X16770D02*
D03*
X17770D02*
D03*
X18770D02*
D03*
X19770D02*
D03*
X20770D02*
D03*
X21770D02*
D03*
X22770D02*
D03*
X23770D02*
D03*
X24770D02*
D03*
X25770D02*
D03*
X26770D02*
D03*
X27770D02*
D03*
X28770D02*
D03*
X29770D02*
D03*
X30770D02*
D03*
X31770D02*
D03*
X32770D02*
D03*
X33770D02*
D03*
D62*
X4431Y14044D02*
D03*
X3250Y15894D02*
D03*
X5612D02*
D03*
D63*
X38828Y27230D02*
D03*
X39812D02*
D03*
Y28070D02*
D03*
X38828D02*
D03*
D64*
X41690Y29084D02*
D03*
X36950D02*
D03*
D65*
X41690Y31044D02*
D03*
X36950D02*
D03*
D66*
X43898Y1575D02*
D03*
Y31890D02*
D03*
X1575D02*
D03*
Y1575D02*
D03*
D67*
X8829Y21526D02*
D03*
X20705Y24434D02*
D03*
X24695Y25438D02*
D03*
X29907Y25477D02*
D03*
X43923Y8518D02*
D03*
Y14198D02*
D03*
X44051Y19837D02*
D03*
X43435Y25605D02*
D03*
X39750Y19837D02*
D03*
X39255Y14227D02*
D03*
X39218Y8479D02*
D03*
X39833Y2849D02*
D03*
X36463D02*
D03*
X5567Y2839D02*
D03*
X8465Y17372D02*
D03*
X34602Y28981D02*
D03*
X29986Y31294D02*
D03*
D68*
X1142Y18159D02*
D03*
X24301Y30280D02*
D03*
X36299Y12830D02*
D03*
X35502Y12859D02*
D03*
X17677Y15615D02*
D03*
X13209Y21373D02*
D03*
X30256Y7278D02*
D03*
X24793Y21580D02*
D03*
X30738Y22800D02*
D03*
X31811D02*
D03*
X33760Y24650D02*
D03*
X26713Y29365D02*
D03*
X30433Y28509D02*
D03*
X19813Y3161D02*
D03*
X20541Y3174D02*
D03*
X23778Y3174D02*
D03*
M02*
